<?xml version="1.0"?>
<svg xmlns="http://www.w3.org/2000/svg" viewBox="0 0 744.7 509.5">
  <style>.st1{display:none;fill:#00c895}.st2{fill:#fff}.st3{fill:#00c895}.st4{display:none}.st6{display:inline;fill:#00c895}</style>
  <path class="st1" d="M195.9 509.5c-6.2 0-12.4 0-18.6-.1-41.2-.4-78.2-13.6-110-39.1C33 442.7 11.6 406.5 3.5 362.8c-8.7-49.2 3.9-99.8 34.9-139.1 13.9-17.7 31-32.6 50.4-43.8 6.5-22.1 18.5-42.2 34.7-58.5 33.4-33.6 81.9-47.8 128.9-38.3 27.8-35 63.7-59.6 107-73.2C399.2-2.5 440-3.3 480.7 7.8c56.2 15.5 104.2 52.1 134 102.2 14.4 24.2 24 51 28.1 78.9 16.7 7.1 32.2 16.8 45.8 28.9 28.1 24.8 46 55.9 53.2 92.6 8.1 43.2-1.1 87.9-25.6 124.4-25.1 37-59.6 60.7-102.5 70.4-12.8 2.6-25.7 4.1-38.8 4.2l-23.1.1H195.9zm27.7-394.3c-28.2-.2-55.3 11-75.3 30.9-13.6 13.7-23.2 30.9-27.6 49.7l-1.9 7.7-7 3.7c-17.9 9.4-33.6 22.4-46 38.3-24.6 31.3-34.7 71.7-27.8 111 6.4 35.2 23.7 64.3 51.3 86.5 25.5 20.5 55.2 31.1 88.4 31.4 10.6.1 21.3.1 31.6.1h342.5l23-.1c10.5-.2 20.9-1.3 31.2-3.4 34-7.7 61.3-26.5 81.3-55.9 37-54.3 27.7-127.7-21.8-171.1-13-11.5-28.1-20.4-44.5-26.1l-10.6-3.7-1.1-11.2c-2.5-26.6-11-52.3-24.7-75.3-25.2-42.2-65.7-73.1-113.1-86.2-33.3-9.3-68.6-8.7-101.6 1.8-39.7 12.5-72.1 35.9-96.2 69.7l-7.2 10.1-11.9-3.4c-10.1-3-20.5-4.5-31-4.5z"/>
  <path class="st1" d="M372.8 391.7c-9.7 0-17.5-7.8-17.5-17.5V217.8c0-9.7 7.8-17.5 17.5-17.5s17.5 7.8 17.5 17.5v156.4c0 9.6-7.9 17.5-17.5 17.5z"/>
  <path class="st1" d="M450.9 313.5H294.6c-9.7 0-17.5-7.8-17.5-17.5s7.8-17.5 17.5-17.5H451c9.7 0 17.5 7.8 17.5 17.5s-7.9 17.5-17.6 17.5z"/>
  <path class="st2" d="M82.1 16.1h568c.8 0 1.5.6 1.5 1.5v421.1h-571V17.6c0-.9.7-1.5 1.5-1.5z"/>
  <path class="st3" d="M667.7 454.8H64.5V17.6C64.6 7.9 72.4 0 82.1 0h568c9.7 0 17.6 7.9 17.6 17.6v437.2zm-571-32.2h538.8V32.2H96.7v390.4z"/>
  <path class="st2" d="M54.4 438.7h631.4c3.5 0 6.3 2.9 6.3 6.3v42c0 3.5-2.9 6.3-6.3 6.3H54.4c-3.5 0-6.3-2.9-6.3-6.3v-42c0-3.5 2.8-6.3 6.3-6.3z"/>
  <path class="st3" d="M685.9 509.5H54.4c-12.4 0-22.4-10-22.4-22.4v-42c0-12.4 10-22.4 22.4-22.4h631.4c12.4 0 22.4 10 22.4 22.4v42c.1 12.4-9.9 22.4-22.3 22.4zM64.2 477.3h611.9v-22.5H64.2v22.5zm301.3-84.8c-91 0-165.1-74-165.1-165.1S274.5 62.3 365.5 62.3s165.1 74.1 165.1 165.1-74.1 165.1-165.1 165.1zm0-298.1c-73.3 0-133 59.7-133 133s59.7 133 133 133 133-59.7 133-133-59.7-133-133-133z"/>
  <path class="st3" d="M289.8 146.1h31.5c3.6 0 6.5 2.9 6.5 6.5v31.5c0 3.6-2.9 6.5-6.5 6.5h-31.5c-3.6 0-6.5-2.9-6.5-6.5v-31.5c0-3.5 2.9-6.5 6.5-6.5zm59.9 0h31.5c3.6 0 6.5 2.9 6.5 6.5v31.5c0 3.6-2.9 6.5-6.5 6.5h-31.5c-3.6 0-6.5-2.9-6.5-6.5v-31.5c0-3.5 2.9-6.5 6.5-6.5zm59.9 0h31.5c3.6 0 6.5 2.9 6.5 6.5v31.5c0 3.6-2.9 6.5-6.5 6.5h-31.5c-3.6 0-6.5-2.9-6.5-6.5v-31.5c0-3.5 3-6.5 6.5-6.5zm-119.8 59h31.5c3.6 0 6.5 2.9 6.5 6.5v31.5c0 3.6-2.9 6.5-6.5 6.5h-31.5c-3.6 0-6.5-2.9-6.5-6.5v-31.5c0-3.6 2.9-6.5 6.5-6.5zm59.9 0h31.5c3.6 0 6.5 2.9 6.5 6.5v31.5c0 3.6-2.9 6.5-6.5 6.5h-31.5c-3.6 0-6.5-2.9-6.5-6.5v-31.5c0-3.6 2.9-6.5 6.5-6.5zm59.9 0h31.5c3.6 0 6.5 2.9 6.5 6.5v31.5c0 3.6-2.9 6.5-6.5 6.5h-31.5c-3.6 0-6.5-2.9-6.5-6.5v-31.5c0-3.6 3-6.5 6.5-6.5zm-119.8 59.5h31.5c3.6 0 6.5 2.9 6.5 6.5v31.5c0 3.6-2.9 6.5-6.5 6.5h-31.5c-3.6 0-6.5-2.9-6.5-6.5v-31.5c0-3.6 2.9-6.5 6.5-6.5zm59.9 0h31.5c3.6 0 6.5 2.9 6.5 6.5v31.5c0 3.6-2.9 6.5-6.5 6.5h-31.5c-3.6 0-6.5-2.9-6.5-6.5v-31.5c0-3.6 2.9-6.5 6.5-6.5zm59.9 0h31.5c3.6 0 6.5 2.9 6.5 6.5v31.5c0 3.6-2.9 6.5-6.5 6.5h-31.5c-3.6 0-6.5-2.9-6.5-6.5v-31.5c0-3.6 3-6.5 6.5-6.5z"/>
  <g class="st4">
    <path d="M203.5 75.2h338.4c102.4 0 185.5 83.1 185.5 185.5s-83.1 185.5-185.5 185.5H203.5c-102.4.1-185.5-83-185.5-185.5 0-102.4 83.1-185.5 185.5-185.5z" fill="#fff"/>
    <path class="st6" d="M541.9 463.5H203.5C91.7 463.5.8 372.5.8 260.8S91.8 58 203.5 58h338.4c111.8 0 202.7 91 202.7 202.7s-90.9 202.8-202.7 202.8zM203.5 92.4c-92.8 0-168.4 75.5-168.4 168.4s75.5 168.4 168.4 168.4h338.4c92.8 0 168.4-75.5 168.4-168.4S634.8 92.4 541.9 92.4H203.5z"/>
    <path class="st6" d="M197.6 349.5c-49 0-88.8-39.8-88.8-88.8s39.8-88.8 88.8-88.8 88.8 39.8 88.8 88.8c-.1 49.1-39.8 88.8-88.8 88.8zm0-143.3c-30.1 0-54.4 24.4-54.4 54.4 0 30.1 24.4 54.4 54.4 54.4s54.4-24.4 54.4-54.4c0-29.9-24.4-54.4-54.4-54.4zm431.3 71.7H333.8c-9.5 0-17.2-7.7-17.2-17.2s7.7-17.2 17.2-17.2h295.1c9.5 0 17.2 7.7 17.2 17.2 0 9.6-7.7 17.2-17.2 17.2z"/>
  </g>
</svg>
