<?xml version="1.0"?>
<svg xmlns="http://www.w3.org/2000/svg" id="Layer_1" viewBox="0 0 3290.8 2623.6">
  <style>.st1{fill:#00c895}.st2{fill:#20262b}.st3{fill:#fff}.st7{fill:#314656}.st8{fill:#f6f4f4}.st11{fill:#ffeddc}</style>
  <path d="M1145.9 2248c-2.6-1.5-4.4-4.1-4.6-7.2-.3-4.8 3.4-8.8 8.3-9 16.4-.6 35.3 1 54.8 4.7 4.8.9 8.1 5.4 7.3 10.2-.8 4.7-5.3 7.8-10.1 6.9-18.2-3.4-35.8-4.9-50.8-4.4-1.8 0-3.5-.5-4.9-1.2zm-139.5 32.1c-3.3-.4-6.3-2.4-7.9-5.4-2.3-4.6-.2-10 4.8-12.1 16.8-6.8 37.3-12.5 59.2-16.3 5.4-.9 10.7 2.3 11.9 7.3 1.2 5-2.2 9.8-7.6 10.7-20.4 3.6-39.4 8.8-54.9 15.1-1.8.7-3.7.9-5.5.7zm357.2 36.2c-1.5-2.6-1.6-5.8-.2-8.6 2.2-4.3 7.5-5.8 11.7-3.4 14.3 8 29.7 19.2 44.4 32.3 3.6 3.3 4.1 8.8 1 12.5-3.1 3.6-8.6 3.9-12.3.7-13.8-12.3-28.1-22.7-41.2-30.1-1.4-.7-2.6-2-3.4-3.4zm-98.7-45.6c-2-2.2-2.8-5.3-2-8.3 1.3-4.6 6.1-7.2 10.7-5.8 15.7 4.8 33 12.5 50.3 22.2 4.2 2.4 5.9 7.8 3.6 12s-7.6 5.7-11.8 3.3c-16.1-9.1-32.2-16.2-46.7-20.6-1.6-.6-3.1-1.6-4.1-2.8zm230.7 163.9c.7 3.8-1 7.7-4.5 9.5-4.2 2.2-9.4.5-11.7-3.9-8.3-16.4-17.7-30.6-28-42.2-3.2-3.7-3-9.3.6-12.5 3.5-3.3 9-3 12.2.7 11.2 12.8 21.5 28.2 30.5 46 .5.8.7 1.6.9 2.4zm20.5 58.8c-.3-3.8 1.8-7.5 5.4-9 4.4-1.8 9.4.4 11.2 5 6.7 17.1 14.6 32.2 23.7 44.8 2.8 4 2 9.5-1.8 12.4s-9.2 2-12.1-1.9c-9.9-13.8-18.6-30.2-25.8-48.8-.4-.8-.6-1.7-.6-2.5zm90.6 87.2c1.7-1.9 4.1-3.1 6.8-3 19.9.2 36.1-3.7 44.5-10.6 3.8-3.1 9.3-2.7 12.3 1s2.4 9.2-1.4 12.4c-11.8 9.7-31.7 15-56.1 14.8-4.8 0-8.6-4-8.4-8.9.1-2.2.9-4.2 2.3-5.7zm998.7-425.3c0 .5-.1 1.1-.2 1.6-.9 4.8-5.4 8-10.1 7.1-18.1-3.6-35-6.2-50.5-8-4.7-.5-8.2-4.9-7.6-9.8.5-4.9 4.8-8.4 9.5-7.9 15.9 1.8 33.3 4.5 51.9 8.2 4.1.8 7 4.6 7 8.8zm-1924.2 345c-3.5-3-4.2-8.1-1.6-11.8 4-5.6 8.4-11.1 13-16.5 6.9-8.1 14.4-16 22.3-23.5 3.5-3.3 9-3 12.4.5s3.3 9.1-.1 12.4c-7.5 7.1-14.6 14.5-21 22.1-4.3 5.1-8.4 10.2-12.2 15.5-2.8 3.9-8.3 4.6-12.2 1.7-.3-.2-.4-.3-.6-.4zm1807.7-355.5c-.6 4.7-3.1 8.3-7.7 8-18.8-1.3-34.5-.1-48 3.4-4.6 1.2-8.9-1.6-10.1-6.4-1.1-4.8 1.9-9.6 6.5-10.8 15.3-4 32.1-5.4 52.8-4 4.7.3 7.1 4.4 6.6 9.3 0 .3 0 .4-.1.5zm-387.7 128.5c5-3.8 10-7.3 14.7-10.2 3.8-2.3 7.5-4.5 11.3-6.5 4.3-2.3 9.6-.8 11.8 3.4s.6 9.5-3.8 11.9c-3.4 1.8-6.8 3.8-10.3 6-9.5 5.9-19.6 13.7-30.9 24-3.6 3.2-9.2 3.1-12.4-.4s-2.9-9 .7-12.3c6.7-6.1 12.9-11.3 18.9-15.9zm263.7-107.7c-1.4.8-3 1.2-4.7 1.1-14-.5-29.3 3.4-46.8 11.9-4.4 2.1-9.7.4-11.7-3.9-2.1-4.3.1-9.6 4.2-11.7 20.2-9.8 38.3-14.3 55.4-13.7 4.9.2 8.6 4.2 8.3 9-.2 3.2-2.1 5.9-4.7 7.3zm-117.3 37.2c-1.2 1-2.7 1.7-4.4 2-13.9 2.3-28.1 9.1-43.5 20.9-3.9 3-9.4 2.3-12.3-1.5-2.9-3.8-1.8-9.4 1.9-12.3 17.9-13.6 34.7-21.6 51.6-24.4 4.8-.8 9.2 2.4 9.9 7.2.4 3.1-1 6.1-3.2 8.1zM768.1 2414.1c-1.7-.2-3.4-.9-4.8-2-3.8-3.1-4.2-8.6-1.1-12.2 12.5-14.3 25.9-26.7 39.8-36.9 3.9-2.9 9.5-2.1 12.5 1.7s2.2 9.2-1.7 12.1c-12.8 9.4-25.3 20.9-37 34.3-1.9 2.3-4.8 3.3-7.7 3zM226.5 2149c-1.7-.3-3.3-1-4.7-2.2-3.6-3.3-3.8-8.7-.5-12.2 13.2-13.7 27.1-25.5 41.4-35 4-2.7 9.6-1.7 12.4 2.3 2.8 3.9 1.8 9.3-2.2 12-13.2 8.8-26.2 19.8-38.5 32.6-2.1 2.1-5.1 3-7.9 2.5zm-78.1 84.8c-1.7 0-3.4-.5-4.9-1.5-4-2.7-5-8.1-2.2-12 11.1-15.5 23.2-29.1 36-40.6 3.6-3.2 9.2-3 12.6.5 3.3 3.5 3.1 9-.5 12.2-11.9 10.6-23.1 23.3-33.4 37.8-1.9 2.3-4.7 3.6-7.6 3.6zm-72.6 87.5c-1.7 0-3.4-.4-5-1.4-4.1-2.6-5.2-8-2.5-11.9 10.7-15.8 22.5-29.7 35-41.5 3.5-3.3 9.2-3.2 12.6.2s3.3 8.9-.2 12.2c-11.6 10.9-22.5 23.9-32.5 38.6-1.8 2.4-4.6 3.8-7.4 3.8zm-66.2 96c-1.7.1-3.5-.2-5.1-1.1-4.3-2.4-5.7-7.6-3.3-11.8 9.7-16.4 20.5-31.1 32.3-43.6 3.3-3.5 8.9-3.8 12.6-.6 3.6 3.2 3.9 8.7.6 12.2-10.9 11.6-21 25.3-30 40.5-1.5 2.7-4.2 4.2-7.1 4.4zM320 2076.2c-1.6-.4-3.2-1.4-4.4-2.7-3.2-3.6-2.9-9.1.8-12.2 14.6-12.2 29.7-22.4 45-30.3 4.3-2.2 9.7-.6 12 3.6 2.3 4.2.8 9.5-3.5 11.7-14.1 7.3-28.2 16.8-41.8 28.2-2.2 1.9-5.3 2.4-8.1 1.7zm99.4-64.3c-1.5-.8-2.9-2-3.8-3.5-2.4-4.2-1-9.5 3.2-11.8 16.7-9.1 33.6-16.1 50.1-20.8 4.7-1.3 9.6 1.3 11.1 5.9 1.5 4.6-1.1 9.4-5.8 10.7-15.3 4.4-31 10.9-46.6 19.4-2.5 1.5-5.6 1.4-8.2.1zm334.8 46.8c-.2-1.7.2-3.5 1-5.1 2.3-4.3 7.5-5.9 11.7-3.5 16.5 9.4 31.4 20 44.1 31.6 3.6 3.3 3.9 8.9.8 12.6-3.1 3.7-8.6 4-12.2.8-11.8-10.7-25.6-20.6-41-29.3-2.6-1.6-4.2-4.2-4.4-7.1zm-95.3-52.9c-.4-1.6-.4-3.4.1-5.2 1.5-4.6 6.4-7.1 10.9-5.5 17.9 6.4 34.4 14.2 49 23.4 4.1 2.6 5.4 8 3 12.2s-7.8 5.5-11.9 2.9c-13.5-8.5-28.8-15.8-45.5-21.7-2.8-1-4.8-3.4-5.6-6.1zM870.6 2327c-1.5-.7-2.9-1.9-3.9-3.5-2.5-4.2-1.2-9.5 3-11.9 16.5-9.5 33.2-16.9 49.6-21.9 4.6-1.4 9.6 1.1 11.2 5.7 1.6 4.6-.9 9.4-5.5 10.9-15.2 4.7-30.7 11.6-46.1 20.4-2.6 1.5-5.7 1.5-8.3.3zm72.1-78.9c.7-1.5 1.9-2.9 3.4-3.9 4.1-2.6 9.5-1.3 11.9 2.9 9.6 16.5 17 33.1 22.2 49.5 1.5 4.6-1.1 9.7-5.6 11.2-4.6 1.6-9.4-.9-10.9-5.5-4.8-15.2-11.8-30.6-20.7-46-1.4-2.5-1.5-5.6-.3-8.2zm-77.6-95.9c.2-1.7.9-3.4 2.1-4.7 3.1-3.7 8.6-4.1 12.2-.9 14.2 12.7 26.5 26.2 36.5 40.1 2.8 3.9 2 9.5-1.9 12.4s-9.2 2.1-12.1-1.8c-9.3-12.9-20.7-25.5-33.9-37.3-2.2-2-3.2-4.9-2.9-7.8zm102.6 214.3c1.4-.9 3.2-1.4 5-1.4 4.9.1 8.6 4.1 8.4 8.9-.9 19-3.7 37.1-8.3 53.6-1.3 4.7-6.1 7.5-10.8 6.4s-7.5-5.9-6.2-10.5c4.2-15.3 6.8-32.1 7.7-49.8.1-3.1 1.8-5.7 4.2-7.2zm-249.1 235.6c-1.8.7-3.8.9-5.8.4-21.1-5.2-34.9-15.3-41-30-1.9-4.5-3-9.5-3.2-14.7-.3-5.2 3.7-9.5 8.9-9.8s9.6 3.7 9.8 8.9c.2 3.1.8 5.9 1.8 8.5 3.7 8.8 13.1 15.2 28.2 18.9 5 1.2 8.1 6.3 6.8 11.3-.8 3.1-2.9 5.4-5.5 6.5zm182.9-58.6c0-2.6 1.2-5.3 3.4-7.1 16.4-13.6 26.9-27.8 28.8-39.1.9-5.1 5.7-8.5 10.8-7.6s8.5 5.7 7.6 10.8c-2.7 15.8-15.3 33.7-35.4 50.4-4 3.3-9.9 2.7-13.2-1.2-1.3-1.9-2-4.1-2-6.2zm-297-555.7c-2.1 1.3-4.9 1.6-7.5.5-19.7-7.7-36.8-9.8-46.9-6-4.6 1.7-9.9-.8-11.9-5.7s0-10.3 4.6-12c14.2-5.4 35.3-3.3 59.4 6.1 4.8 1.9 7.5 7.3 6 12.1-.6 2.3-1.9 3.9-3.7 5zm187.9 616.7c1.5-2.2 3.9-3.7 6.8-4 21.2-2.1 37.9-8 45.8-16.3 3.6-3.7 9.5-3.9 13.2-.3 3.7 3.6 3.9 9.5.3 13.2-11.1 11.6-31.5 19.4-57.5 22-5.1.5-9.7-3.2-10.2-8.4-.2-2.3.4-4.4 1.6-6.2z" fill="#d4d6d5"/>
  <g id="Layer_5">
    <path class="st1" d="M3072.3 2200.5h114.8c57.2 0 103.7 46.7 103.7 103.9v6.9c0 57.2-46.6 103.6-103.7 103.6H3150l23.3 61.6-88.7-61.6h-12.2c-57.2 0-103.6-46.5-103.6-103.6v-6.9c-.1-57.2 46.3-103.9 103.5-103.9z"/>
    <path class="st2" d="M2936.7 2296.7c0-16.2 3.2-31.9 9.5-46.7 6-14.3 14.8-27.1 25.8-38.1s23.9-19.7 38.3-25.7c13.7-5.8 28.2-9 43-9.5v-6.3c0-88.8-72.5-161.2-161.4-161.2h-178.1c-88.8 0-161.4 72.4-161.4 161.2v10.8c0 88.8 72.5 161.6 161.4 161.6h57.6l-36.2 95.7 137.8-95.7h18.9c17.1 0 33.5-2.7 49-7.6-2.7-10.1-4.2-20.7-4.2-31.4v-7.1z"/>
    <ellipse class="st3" cx="2677.4" cy="2169.4" rx="32" ry="32"/>
    <ellipse class="st3" cx="2790.2" cy="2169.4" rx="32" ry="32"/>
    <ellipse class="st3" cx="2903" cy="2169.6" rx="32" ry="32"/>
    <ellipse class="st3" cx="3051.9" cy="2301.8" rx="23.6" ry="23.6"/>
    <ellipse class="st3" cx="3135" cy="2301.8" rx="23.6" ry="23.6"/>
    <ellipse class="st3" cx="3218.2" cy="2302.2" rx="23.6" ry="23.6"/>
  </g>
  <path d="M1680.7 2615l-.1 8.6h193.2l.9-214.8-193.2-.1-.8 206.3" fill="#141313"/>
  <path d="M1680.5 2623.6h361.2l.9-214.8-167.9-.1-193.2-.2h-.7l-.3 215.1z" fill="#2f2f2f"/>
  <path d="M2020.5 2418.1l-317.6-.3c-24.1 0-43.9-19.8-43.8-43.9l.1-92c0-24.1 19.8-43.9 43.9-43.8l317.6.3c24.1 0 43.9 19.8 43.8 43.9l-.1 92c0 24.1-19.8 43.8-43.9 43.8z" fill="#e9f4f2"/>
  <path class="st7" d="M495.6 0H2909v1805.3H495.6V0z"/>
  <path class="st2" d="M600.1 256.6H2776v1320.7H600.1V256.6z"/>
  <path class="st8" d="M2495.8 62.7h108.4v95.8h-108.4V62.7z"/>
  <path class="st7" d="M2506.3 77.6h87.2v67.2h-87.2V77.6z"/>
  <path class="st8" d="M2673.1 77.9l13.7-13.7 80.1 80.1-13.7 13.7-80.1-80.1z"/>
  <path class="st8" d="M2673.3 144.3l80.1-80.1 13.7 13.7L2687 158l-13.7-13.7zM596.4 1640.2h42.3v117.1h-42.3v-117.1zm62.4 0h42.3v117.1h-42.3v-117.1zm65.4 37.9H2757v40.5H724.2v-40.5z"/>
  <path class="st8" d="M2432.6 1645.7h52.3v120h-52.3v-120z"/>
  <path d="M600.3 628.2l400-255m-400 674l338 530M632.2 307l569.1 892.2m-96-934l635 976m-133-985l842 1321m-338-1321l559 878m-106.1-876.8l141.1 220.8m-1904 432l778-496m-979 1064l1916-1222m-1413 1323l1211-785m-461 680l922-588m-471 691l463-291" fill="none" stroke="#00c895"/>
  <circle class="st3" cx="1701.4" cy="901.7" r="339"/>
  <path class="st1" d="M1915.9 910.5l-317.1 183.1V727.4l317.1 183.1z"/>
  <path d="M1703.6 2239v-38.8s-58.5-5.6-96.8-76.6l-177.3-384.1s-10.5-21.4-9.8-34c0 0-1.5-41.9 35.8-60.4 0 0 37-12.5 61.5 16 0 0 18.5 13.8 35.4 53l39.8 76.3 18.8 31.8.2-313.3 1.1-297.1s10-50.2 41.3-61c0 0 36-13.3 56.4 9.1 0 0 27.1 17.9 28 55.2v188.5l-2.7 357.5s2.1-130.8 10-151.3c0 0 21.1-52.9 63.7-48 0 0 43.9-2.1 61.8 42.4 0 0 16.9 20.8 8.4 88.7l.7 69.5s-1.4-115.8 4.6-125.4 14.1-41.1 60.1-42.8c0 0 40.4 1.7 55.5 41.9 0 0 6 2.1 6 39l1.8 76.4s-2.5-76.8 2.5-83c0 0 15.8-39.4 43.9-39.4 0 0 32.3-10.4 50.6 19.5 0 0 17.9 11.6 16.2 59l-8.2 222.7s-12.7 188.1-88.7 268.2l-.5 40.6-320.1-.1z" fill="#edc396"/>
  <path class="st11" d="M1468.2 1656.3s-26.5-12.1-35.4 13.6c0 0-9.2 13 1.8 33.3l35.1 73.3s11.7 6.1 26.5-2.4c0 0 19.1-12.7 18.5-32.1 0 0 3.4-12.1-11.4-37.6 0 .1-24.3-42.6-35.1-48.1z"/>
  <ellipse class="st11" cx="1674.2" cy="1201" rx="48.4" ry="51.2"/>
</svg>
