<?xml version="1.0"?>
<svg xmlns="http://www.w3.org/2000/svg" xmlns:xlink="http://www.w3.org/1999/xlink" viewBox="0 0 744.7 509.5">
  <style>.st1{fill:#fff}.st2{display:none}.st3,.st4{display:inline;fill:#fff}.st4{fill:#00c895}</style>
  <path d="M551.8 492l23-.1c11.8-.1 23.5-1.4 35-3.8 38.4-8.7 69.4-30 91.9-63.1 42-61.6 31.4-144.9-24.7-194.1-14.7-13-31.8-23-50.3-29.5-2.8-29.2-12-57.4-27-82.5C572.2 72.7 528 39 476.1 24.7c-36.6-10.2-75.3-9.5-111.5 2-43.5 13.7-78.8 39.3-105.2 76.2-44.5-12.9-91.8-1-123.6 30.9-15.9 15.9-27 36-32.2 57.9-20.1 10.5-37.6 25.2-51.6 43-27.8 35.3-39.2 80.8-31.4 125 7.3 39.5 26.6 72.1 57.6 97 28.6 23 62 34.9 99.2 35.3 11.3.1 22.6.1 33.5 0h340.9z" fill="#00c895"/>
  <path class="st1" d="M195.9 509.5c-6.2 0-12.4 0-18.6-.1-41.2-.4-78.2-13.6-110-39.1C33 442.7 11.6 406.5 3.5 362.8c-8.7-49.2 3.9-99.8 34.9-139.1 13.9-17.7 31-32.6 50.4-43.8 6.5-22.1 18.5-42.2 34.7-58.5 33.4-33.6 81.9-47.8 128.9-38.3 27.8-35 63.7-59.6 107-73.2C399.2-2.5 440-3.3 480.7 7.8c56.2 15.5 104.2 52.1 134 102.2 14.4 24.2 24 51 28.1 78.9 16.7 7.1 32.2 16.8 45.8 28.9 28.1 24.8 46 55.9 53.2 92.6 8.1 43.2-1.1 87.9-25.6 124.4-25.1 37-59.6 60.7-102.5 70.4-12.8 2.6-25.7 4.1-38.8 4.2l-23.1.1H195.9zm27.7-394.3c-28.2-.2-55.3 11-75.3 30.9-13.6 13.7-23.2 30.9-27.6 49.7l-1.9 7.7-7 3.7c-17.9 9.4-33.6 22.4-46 38.3-24.6 31.3-34.7 71.7-27.8 111 6.4 35.2 23.7 64.3 51.3 86.5 25.5 20.5 55.2 31.1 88.4 31.4 10.6.1 21.3.1 31.6.1h342.5l23-.1c10.5-.2 20.9-1.3 31.2-3.4 34-7.7 61.3-26.5 81.3-55.9 37-54.3 27.7-127.7-21.8-171.1-13-11.5-28.1-20.4-44.5-26.1l-10.6-3.7-1.1-11.2c-2.5-26.6-11-52.3-24.7-75.3-25.2-42.2-65.7-73.1-113.1-86.2-33.3-9.3-68.6-8.7-101.6 1.8-39.7 12.5-72.1 35.9-96.2 69.7l-7.2 10.1-11.9-3.4c-10.1-3-20.5-4.5-31-4.5z"/>
  <path class="st1" d="M372.8 391.7c-9.7 0-17.5-7.8-17.5-17.5V217.8c0-9.7 7.8-17.5 17.5-17.5s17.5 7.8 17.5 17.5v156.4c0 9.6-7.9 17.5-17.5 17.5z"/>
  <path class="st1" d="M450.9 313.5H294.6c-9.7 0-17.5-7.8-17.5-17.5s7.8-17.5 17.5-17.5H451c9.7 0 17.5 7.8 17.5 17.5s-7.9 17.5-17.6 17.5z"/>
  <g class="st2">
    <path class="st3" d="M82.1 16.1h568c.8 0 1.5.6 1.5 1.5v421.1h-571V17.6c0-.9.7-1.5 1.5-1.5z"/>
    <path class="st4" d="M667.7 454.8H64.5V17.6C64.6 7.9 72.4 0 82.1 0h568c9.7 0 17.6 7.9 17.6 17.6v437.2zm-571-32.2h538.8V32.2H96.7v390.4z"/>
    <path class="st3" d="M54.4 438.7h631.4c3.5 0 6.3 2.9 6.3 6.3v42c0 3.5-2.9 6.3-6.3 6.3H54.4c-3.5 0-6.3-2.9-6.3-6.3v-42c0-3.5 2.8-6.3 6.3-6.3z"/>
    <path class="st4" d="M685.9 509.5H54.4c-12.4 0-22.4-10-22.4-22.4v-42c0-12.4 10-22.4 22.4-22.4h631.4c12.4 0 22.4 10 22.4 22.4v42c.1 12.4-9.9 22.4-22.3 22.4zM64.2 477.3h611.9v-22.5H64.2v22.5zm301.3-84.8c-91 0-165.1-74-165.1-165.1S274.5 62.3 365.5 62.3s165.1 74.1 165.1 165.1-74.1 165.1-165.1 165.1zm0-298.1c-73.3 0-133 59.7-133 133s59.7 133 133 133 133-59.7 133-133-59.7-133-133-133z"/>
    <path class="st4" d="M289.8 146.1h31.5c3.6 0 6.5 2.9 6.5 6.5v31.5c0 3.6-2.9 6.5-6.5 6.5h-31.5c-3.6 0-6.5-2.9-6.5-6.5v-31.5c0-3.5 2.9-6.5 6.5-6.5zm59.9 0h31.5c3.6 0 6.5 2.9 6.5 6.5v31.5c0 3.6-2.9 6.5-6.5 6.5h-31.5c-3.6 0-6.5-2.9-6.5-6.5v-31.5c0-3.5 2.9-6.5 6.5-6.5zm59.9 0h31.5c3.6 0 6.5 2.9 6.5 6.5v31.5c0 3.6-2.9 6.5-6.5 6.5h-31.5c-3.6 0-6.5-2.9-6.5-6.5v-31.5c0-3.5 3-6.5 6.5-6.5zm-119.8 59h31.5c3.6 0 6.5 2.9 6.5 6.5v31.5c0 3.6-2.9 6.5-6.5 6.5h-31.5c-3.6 0-6.5-2.9-6.5-6.5v-31.5c0-3.6 2.9-6.5 6.5-6.5zm59.9 0h31.5c3.6 0 6.5 2.9 6.5 6.5v31.5c0 3.6-2.9 6.5-6.5 6.5h-31.5c-3.6 0-6.5-2.9-6.5-6.5v-31.5c0-3.6 2.9-6.5 6.5-6.5zm59.9 0h31.5c3.6 0 6.5 2.9 6.5 6.5v31.5c0 3.6-2.9 6.5-6.5 6.5h-31.5c-3.6 0-6.5-2.9-6.5-6.5v-31.5c0-3.6 3-6.5 6.5-6.5zm-119.8 59.5h31.5c3.6 0 6.5 2.9 6.5 6.5v31.5c0 3.6-2.9 6.5-6.5 6.5h-31.5c-3.6 0-6.5-2.9-6.5-6.5v-31.5c0-3.6 2.9-6.5 6.5-6.5zm59.9 0h31.5c3.6 0 6.5 2.9 6.5 6.5v31.5c0 3.6-2.9 6.5-6.5 6.5h-31.5c-3.6 0-6.5-2.9-6.5-6.5v-31.5c0-3.6 2.9-6.5 6.5-6.5zm59.9 0h31.5c3.6 0 6.5 2.9 6.5 6.5v31.5c0 3.6-2.9 6.5-6.5 6.5h-31.5c-3.6 0-6.5-2.9-6.5-6.5v-31.5c0-3.6 3-6.5 6.5-6.5z"/>
  </g>
  <g class="st2">
    <path class="st4" d="M203.5 60.2h338.4c102.4 0 185.5 83.1 185.5 185.5s-83.1 185.5-185.5 185.5H203.5c-102.4.1-185.5-83-185.5-185.5 0-102.4 83.1-185.5 185.5-185.5z"/>
    <path class="st3" d="M541.9 448.5H203.5C91.7 448.5.8 357.5.8 245.8S91.8 43 203.5 43h338.4c111.8 0 202.7 91 202.7 202.7s-90.9 202.8-202.7 202.8zM203.5 77.4c-92.8 0-168.4 75.5-168.4 168.4s75.5 168.4 168.4 168.4h338.4c92.8 0 168.4-75.5 168.4-168.4S634.8 77.4 541.9 77.4H203.5z"/>
    <path class="st3" d="M197.6 334.5c-49 0-88.8-39.8-88.8-88.8s39.8-88.8 88.8-88.8 88.8 39.8 88.8 88.8c-.1 49.1-39.8 88.8-88.8 88.8zm0-143.3c-30.1 0-54.4 24.4-54.4 54.4s24.4 54.4 54.4 54.4 54.4-24.4 54.4-54.4c0-29.9-24.4-54.4-54.4-54.4zm431.3 71.7H333.8c-9.5 0-17.2-7.7-17.2-17.2s7.7-17.2 17.2-17.2h295.1c9.5 0 17.2 7.7 17.2 17.2s-7.7 17.2-17.2 17.2z"/>
  </g>
  <g fill-rule="evenodd" clip-rule="evenodd" class="st2">
    <path d="M408.6 163c-83.9 6-157.4 51.2-200 123.2-1.7 2.8-3.5 6-4.5 7.3-1.9 2.8-8 15.3-10.8 21.8-21.8 50.8-26.1 110.4-11.7 163 4.8 18.1 6.3 21.6 9.5 23.1l1.7.9h28.7c31.8 0 30.1.2 32.4-2.2 2.6-2.8 2.8-6 .4-11.4-24.4-55.6-20.1-119.8 11.5-171.2 1.1-1.7 2.2-3.7 2.4-4.3 3.5-6.9 18.6-25.3 28.1-34.1 6.3-6 16.7-14.5 17.5-14.5.2 0 1.7-1.1 3.5-2.4 51.4-36.3 115.7-44.1 175.1-21.2 2.8 1.1 5 1.9 5 1.9s.4-3.2.6-6.9c1.3-19.7-3.2-47.3-10.4-64l-.7-1.5-3-.7c-11.7-2.8-23.6-4.8-37.4-6.1-6.1-.9-31.4-1.3-37.9-.7m154.1 42.6c2.6 23.1.2 58.4-5.6 77.4-.2.4.7 1.7 2.8 3.7 51.2 54 64.9 133.4 35 201.9-3 6.9-2.2 11.2 2.6 13.2 2.2.9 58.8.7 60.9-.2 2.8-1.3 3.9-3.7 7.8-16.9 22.9-80 6.5-163.4-45.2-228-1.1-1.5-2.2-2.6-2.2-2.8-.2-.2-.9-1.1-1.9-2.2-13.6-16.4-35.2-35.5-52.7-46.9l-1.5-.9v1.7" fill="#fff"/>
    <path d="M326.9 6.1c-25.1 1.9-53.4 8.4-72.2 17.1-.9.4-1.7.7-1.9.7-.6 0-12.1 5.6-16.6 8-65.7 35.4-109.4 100.3-117.1 173.6-1.1 11.5-1.5 32.2-.7 37.6l.2 1.3-6.3 3.2c-16.4 8-33.9 19.7-45.6 30.5-.7.6-2.6 2.4-4.5 4.1-48.3 44.4-71 116.2-57.6 183 3.3 16.6 8.7 32.9 11.7 35.2 2.2 1.9 1.9 1.9 32.6 1.9 32.2 0 30.3.2 32.8-2.4 3-3.2 3-6.3 0-12.1-46.3-89 17.9-194.3 118.4-194.3h4.3l.7-1.5c7.6-15.1 24.6-37.6 40-53.6 2.6-2.6 3.7-4.1 3.5-4.3-9.7-3.3-41.5-7.1-52.3-6.3-.9 0-4.3.2-7.1.4l-5.2.2v-3.2c0-30.3 11.9-64.8 31.4-90.6 61-81.1 181.8-84.3 246.6-6.1 1.5 1.7 2.6 3.2 2.8 3.3.2.2 4.5 6 6.3 8.6 4.5 6.5 10.6 17.5 14.1 25.5.9 2.2 2 4.5 2.2 4.7 1.3 1.7 6.3 17.5 8.2 26.4 3 14.7 4.3 36.7 2.4 46-.2.9-.7 4.7-1.3 8.2-3.5 25.3-13.6 50.4-28.7 70.7-4.5 6.1-3.7 11.7 1.7 14.7l1.5.7H533l1.9-.9c2.2-1.3 3.2-2.6 6.7-9.7 6.3-13 12.5-29.6 14.9-39.8 6.5-28.3 8.7-55.5 6.7-76.5-.2-1.9-.4-4.8-.6-6.7-1.7-28.7-16.2-68.9-35.7-98.1-2.8-4.3-4.5-6.5-9.1-12.8-4.5-6-10.2-12.7-17.1-19.5-7.1-7.1-12.1-11.7-20.3-18.4C448.8 28.6 407.5 11.9 363 7c-5-.7-31.1-1.3-36.1-.9m-17.1 262c-15.1 12.1-27.9 25.7-38 40.6l-3.2 4.5 3.9 2.6c55.6 37 74.4 108.7 44.7 169.3-4.7 9.5-4.8 11.7-1.1 15.1 2.2 2 1.1 1.9 32.8 1.9 33.5 0 31.1.2 33.5-2.6 2.8-3.3 8.9-24.4 11.5-39.3 2.2-12.5 2.8-19.7 2.8-34.6 0-61.2-26.8-116.7-74.8-155.2-4.3-3.5-7.4-5.8-7.8-5.8-.2.4-2.3 1.9-4.3 3.5m375 203.1v2h9.4v29h4.4v-29h9.4v-4h-23v2m27.7 14.5v16.6h4.8v-25.6l.9 2.2c.6 1.1 2.8 6.9 5.2 12.7 5.8 14 4.7 14.3 11.4-2.2l5.2-12.8v25.6h4.4V469l-3.3.2-3.3.2-4.5 11c-2.4 6.1-4.5 11.4-4.7 11.7-.2.6-1.5-2.4-5-11l-4.7-11.7-3.5-.2-3.5-.2v16.7" fill="#f5f5f5"/>
    <path d="M563.8 221.8c0 .9 0 1.1.2.7V221c-.2-.5-.2-.1-.2.8m-65.5.2c0 .7 0 1.1.2.6v-1.3c0-.4-.2-.1-.2.7m65.5 11.3c0 .7 0 1.1.2.6v-1.3c-.2-.4-.2 0-.2.7m-65.5 1.9c0 .7 0 .9.2.6v-1.3c0-.2-.2.1-.2.7m-205.1 47.5l-3 3 3-3c3-2.6 3.3-3 3-3 0-.2-1.5 1.3-3 3" fill="#049c8c"/>
    <path d="M563.8 227.6c0 2.6 0 3.5.2 2.4v-4.7c-.2-1.3-.2-.2-.2 2.3m-316.9 8.7l-.9 1.1.9-1.1c.7-.4 1.3-.9 1.3-.9 0-.4-.4 0-1.3.9m91.9 49.7c.6.7 1.3 1.3 1.3 1.3.2 0-.4-.6-.9-1.3s-1.3-1.3-1.3-1.3c-.2 0 .4.6.9 1.3" fill="#049582"/>
    <path d="M243.9 239.5l-2 2.2 2-2.2c1.3-1.1 2.2-2 2.2-2 .1-.3-.3-.1-2.2 2m53.4 39.2l-1.1 1.3 1.1-1.3c.7-.6 1.5-1.1 1.5-1.1-.2-.3-.4 0-1.5 1.1m-8 8l-1.1 1.3 1.1-1.3c1.3-.9 1.5-1.3 1.3-1.3 0 0-.5.6-1.3 1.3" fill="#048c7c"/>
  </g>
</svg>
