<?xml version="1.0"?>
<svg xmlns="http://www.w3.org/2000/svg" id="Layer_1" viewBox="0 0 807.8 594.5">
  <style>.st3{fill:#fff}.st4{fill:#009193}.st6{opacity:.4}.st7{fill-rule:evenodd;clip-rule:evenodd}.st7,.st8{opacity:.4;fill:#fff;enable-background:new}.st10{fill-rule:evenodd;clip-rule:evenodd;fill:#323334}.st12,.st14,.st15,.st16,.st18,.st19{fill-rule:evenodd;clip-rule:evenodd;fill:#fff}.st14,.st15,.st16,.st18,.st19{fill:#009193}.st15,.st16,.st18,.st19{fill:#00c895}.st16,.st18,.st19{fill:#b7b5b8}.st18,.st19{fill:#38363c}.st19{fill:#20262b}.st23{fill:#00c895}.st24{fill:#314656}.st28{opacity:.69;fill:#f37021;enable-background:new}</style>
  <path d="M670.8 345.5c-17.8 139.9-137.2 248-281.8 248-138.1 0-253.2-98.5-278.8-229.1" opacity=".2" fill="none" stroke="#fff" stroke-width="2" stroke-miterlimit="10" stroke-dasharray="9.9182,4.9591"/>
  <g opacity=".79">
    <path d="M107.6 269.9c5-36.2 16.9-70.2 34.2-100.7m491.7-4.6c15 25.2 26.1 52.9 32.7 82.4M416.6 26.6C478 32.5 533.7 58 577.4 96.7m-380 2.9c39.7-36.2 89.6-61.4 145-70.5" opacity=".8" fill="none" stroke="#fff" stroke-width="2" stroke-miterlimit="10" stroke-dasharray="9.9182,4.9591"/>
  </g>
  <path class="st3" d="M578.4 158h-2c-4.5 0-8.5-1.5-11.9-4.2-3.7-3-6-6.9-6.9-11.7-.9-5.3.4-10.8 3.8-15.1 1.5-1.9 3.4-3.5 5.5-4.8.7-2.4 2-4.6 3.8-6.3 3.6-3.6 8.9-5.2 14-4.2 3-3.8 6.9-6.5 11.6-7.9 4.3-1.3 8.7-1.4 13.2-.2 6.1 1.7 11.3 5.7 14.5 11.1 1.6 2.6 2.6 5.5 3 8.6 1.8.8 3.5 1.8 5 3.1 3 2.7 5 6.1 5.8 10 .9 4.7-.1 9.5-2.8 13.5s-6.5 6.6-11.1 7.6c-1.4.3-2.8.4-4.2.5h-41.3zm3-42.8c-3.1 0-6 1.2-8.2 3.4-1.5 1.5-2.5 3.4-3 5.4l-.2.8-.8.4c-1.9 1-3.6 2.4-5 4.2-2.7 3.4-3.8 7.8-3 12 .7 3.8 2.6 7 5.6 9.4 2.8 2.2 6 3.4 9.6 3.4h43.1c1.1 0 2.3-.1 3.4-.4 3.7-.8 6.7-2.9 8.8-6.1 4-5.9 3-13.9-2.4-18.6-1.4-1.2-3-2.2-4.8-2.8l-1.2-.4-.1-1.2c-.3-2.9-1.2-5.7-2.7-8.2-2.7-4.6-7.1-7.9-12.3-9.4-3.6-1-7.4-.9-11 .2-4.3 1.4-7.8 3.9-10.4 7.6l-.8 1.1-1.3-.4c-1-.2-2.1-.4-3.3-.4z"/>
  <path class="st4" d="M597.6 145.2c-1.1 0-1.9-.8-1.9-1.9v-17c0-1.1.8-1.9 1.9-1.9 1.1 0 1.9.8 1.9 1.9v17c0 1-.8 1.9-1.9 1.9z"/>
  <path class="st4" d="M606.1 136.7h-17c-1.1 0-1.9-.8-1.9-1.9 0-1.1.8-1.9 1.9-1.9h17c1.1 0 1.9.8 1.9 1.9 0 1.1-.8 1.9-1.9 1.9z"/>
  <path class="st3" d="M198.3 157.1h-63.6V111c0-1 .8-1.9 1.9-1.9h59.9c1 0 1.9.8 1.9 1.9l-.1 46.1zm-60.2-3.4h56.8v-41.2h-56.8v41.2z"/>
  <path d="M133.6 155.4h66.6c.4 0 .7.3.7.7v4.4c0 .4-.3.7-.7.7h-66.6c-.4 0-.7-.3-.7-.7V156c.1-.3.4-.6.7-.6z" fill="#e4eae8"/>
  <path class="st3" d="M200.2 162.8h-66.6c-1.3 0-2.4-1.1-2.4-2.4V156c0-1.3 1.1-2.4 2.4-2.4h66.6c1.3 0 2.4 1.1 2.4 2.4v4.4c0 1.4-1.1 2.4-2.4 2.4zm-65.5-3.4h64.5V157h-64.5v2.4z"/>
  <path class="st4" d="M166.4 150.5c-9.6 0-17.4-7.8-17.4-17.4s7.8-17.4 17.4-17.4 17.4 7.8 17.4 17.4-7.8 17.4-17.4 17.4zm0-31.4c-7.7 0-14 6.3-14 14s6.3 14 14 14 14-6.3 14-14-6.2-14-14-14z"/>
  <path class="st3" d="M158.5 124.5h3.3c.4 0 .7.3.7.7v3.3c0 .4-.3.7-.7.7h-3.3c-.4 0-.7-.3-.7-.7v-3.3c0-.4.3-.7.7-.7zm6.3 0h3.3c.4 0 .7.3.7.7v3.3c0 .4-.3.7-.7.7h-3.3c-.4 0-.7-.3-.7-.7v-3.3c0-.4.3-.7.7-.7zm6.3 0h3.3c.4 0 .7.3.7.7v3.3c0 .4-.3.7-.7.7h-3.3c-.4 0-.7-.3-.7-.7v-3.3c0-.4.3-.7.7-.7zm-12.6 6.2h3.3c.4 0 .7.3.7.7v3.3c0 .4-.3.7-.7.7h-3.3c-.4 0-.7-.3-.7-.7v-3.3c0-.4.3-.7.7-.7zm6.3 0h3.3c.4 0 .7.3.7.7v3.3c0 .4-.3.7-.7.7h-3.3c-.4 0-.7-.3-.7-.7v-3.3c0-.4.3-.7.7-.7zm6.3 0h3.3c.4 0 .7.3.7.7v3.3c0 .4-.3.7-.7.7h-3.3c-.4 0-.7-.3-.7-.7v-3.3c0-.4.3-.7.7-.7zm-12.6 6.3h3.3c.4 0 .7.3.7.7v3.3c0 .4-.3.7-.7.7h-3.3c-.4 0-.7-.3-.7-.7v-3.3c0-.4.3-.7.7-.7zm6.3 0h3.3c.4 0 .7.3.7.7v3.3c0 .4-.3.7-.7.7h-3.3c-.4 0-.7-.3-.7-.7v-3.3c0-.4.3-.7.7-.7zm6.3 0h3.3c.4 0 .7.3.7.7v3.3c0 .4-.3.7-.7.7h-3.3c-.4 0-.7-.3-.7-.7v-3.3c0-.4.3-.7.7-.7z"/>
  <g class="st6">
    <path class="st3" d="M559.5 16.8c-.1-.1-.2-.1-.3.1l-9.7 13.9c-.4.5-.3 1.2.3 1.6l.4.3c.5.4 1.2.3 1.6-.2l11.1-12.9c.1-.1.1-.2 0-.3l-3.4-2.5zm9.9-9.3c-1-.8-2.4-.6-3.2.4l-6.4 8.3c-.1.1-.1.2 0 .3l3.3 2.6c.1.1.2.1.3 0l6.4-8.3c.8-1.1.6-2.5-.4-3.3zm-1.6 2.8l-4 5.1c.1.3.1.6-.1.8-.3.4-.8.4-1.2.1-.4-.3-.4-.8-.1-1.2.2-.3.5-.3.8-.3l4-5.1c.1-.2.4-.3.6-.1.1.2.1.5 0 .7zm-20.3 25.4l2.4-2.3c.2-.1.1-.4 0-.6l-.4-.3c-.2-.1-.4-.1-.6.1l-1.6 2.9c.1.2.2.3.2.2z"/>
    <path class="st3" d="M553.9 41.5H525c-1 0-1.8-.8-1.8-1.8V19.6c0-1 .8-1.8 1.8-1.8h28.9c.5 0 .9-.4.9-.9s-.4-.9-.9-.9H525c-2 0-3.6 1.6-3.6 3.6v20.1c0 2 1.6 3.6 3.6 3.6h28.9c.5 0 .9-.4.9-.9 0-.4-.4-.9-.9-.9z"/>
    <path class="st3" d="M526.2 22.1h6.9c.5 0 .9-.4.9-.9s-.4-.9-.9-.9h-6.9c-.5 0-.9.4-.9.9s.4.9.9.9zm22.3 3.4c0-.5-.4-.9-.9-.9h-21.3c-.5 0-.9.4-.9.9s.4.9.9.9h21.3c.5 0 .9-.4.9-.9zm-22.3 5.2h13.2c.5 0 .9-.4.9-.9s-.4-.9-.9-.9h-13.2c-.5 0-.9.4-.9.9 0 .6.4.9.9.9zm0 6.9c-.5 0-.9.4-.9.9s.4.9.9.9h8.7c.5 0 .9-.4.9-.9s-.4-.9-.9-.9h-8.7zm18.7-3.4c0-.5-.4-.9-.9-.9h-17.8c-.5 0-.9.4-.9.9s.4.9.9.9h17.7c.5 0 1-.4 1-.9z"/>
  </g>
  <path class="st7" d="M563.5 61.5h-1.4v-6.3h-6.3v-1.4h6.3v-6.3h1.4v6.3h6.3v1.4h-6.3v6.3z"/>
  <path class="st8" d="M49.2 193.4v38.2h48.6v-38.2H49.2zm10.4 29l-3.5-3.5L63 212l-6.9-6.9 3.5-3.5L70 212l-10.4 10.4zm29.6-.6H73.5v-4.7h15.8v4.7h-.1z"/>
  <path class="st7" d="M789.5 461.2H675.8c-8.1 0-14.8-6.4-14.8-14.1s6.7-14.1 14.8-14.1h117.8c4.1 0 7.4-3.2 7.4-7 0-3.9-3.3-7-7.4-7H683.7c-2.2 0-4-1.7-4-3.8 0-2.1 1.8-3.8 4-3.8h112.6c1.5 0 2.8-1.2 2.8-2.7s-1.3-2.7-2.8-2.7H619.9c-1.7 0-3.1-1.3-3.1-2.9s1.4-2.9 3.1-2.9h110.6c1.6 0 2.8-1.2 2.8-2.7s-1.3-2.7-2.8-2.7H239.7c-1.6 0-2.8 1.2-2.8 2.7s1.3 2.7 2.8 2.7h.2c-1.7 0-3 1.3-3 2.9s1.4 2.9 3 2.9H128.6c-1.6 0-2.8 1.2-2.8 2.7s1.3 2.7 2.8 2.7h9.9c2.2 0 4 1.7 4 3.8 0 2.1-1.8 3.8-4 3.8H70.9c-4.1 0-7.4 3.2-7.4 7s3.3 7 7.4 7H89c8.1 0 14.8 6.4 14.8 14.1s-6.7 14.1-14.8 14.1H18.4C8.3 461.2 0 469.1 0 478.7s8.3 17.5 18.4 17.5h135.5c5.4 0 9.9 4.2 9.9 9.4s-4.5 9.4-9.9 9.4h-50.1c-7.5 0-13.7 5.9-13.7 13 0 7.2 6.1 13 13.7 13H620c7.5 0 13.7-5.9 13.7-13 0-7.2-6.1-13-13.7-13h-64.8c-5.4 0-9.9-4.2-9.9-9.4s4.5-9.4 9.9-9.4h234.3c10.1 0 18.4-7.9 18.4-17.5-.1-9.6-8.3-17.5-18.4-17.5zm-650.2-114h110.3c6.3 0 11.5 4.9 11.5 10.9 0 4.3-2.6 11.6-6.4 15.4.6.5.9 1.1.9 1.8 0 1.4-1.2 2.5-2.6 2.5h13.9c1.4 0 2.6 1.1 2.6 2.5s-1.2 2.5-2.6 2.5h25.7c1.4 0 2.6 1.1 2.6 2.5s-1.2 2.5-2.6 2.5H64.1c-1.4 0-2.6-1.1-2.6-2.5s1.2-2.5 2.6-2.5h11.4c1.4 0 2.6-1.1 2.6-2.5s-1.2-2.5-2.6-2.5h-51c-1.4 0-2.6-1.1-2.6-2.5s1.2-2.5 2.6-2.5h109.2c-3.5-4-5.8-10.7-5.8-14.8-.1-6 5.1-10.8 11.4-10.8z" opacity=".5"/>
  <path class="st10" d="M565.3 348.6h19v3.8h-19v-3.8z"/>
  <path d="M565.3 350.3h19v1.2h-19v-1.2zm1.5 36c0 1.1-.9 2-2.1 2h-1c-1.1 0-2.1-.9-2.1-2s.9-2 2.1-2h1c1.2 0 2.1.9 2.1 2zm21.1 0c0 1.1-.9 2-2.1 2h-1c-1.1 0-2.1-.9-2.1-2s.9-2 2.1-2h1c1.2 0 2.1.9 2.1 2z" fill-rule="evenodd" clip-rule="evenodd" fill="#111212"/>
  <path class="st10" d="M559.7 351.3h30.2c1.6 0 3 1.3 3 2.8V383c0 1.6-1.3 2.8-3 2.8h-30.2c-1.6 0-3-1.3-3-2.8v-28.9c0-1.6 1.4-2.8 3-2.8z"/>
  <path class="st12" d="M561.1 354.1h27.5c.7 0 1.3.6 1.3 1.3v26.3c0 .7-.6 1.3-1.3 1.3h-27.5c-.7 0-1.3-.6-1.3-1.3v-26.3c-.1-.7.5-1.3 1.3-1.3z"/>
  <path d="M574.8 362.7c-.1 0-.2-.1-.2-.2s.1-.2.2-.2h.4c.1 0 .2.1.2.2s-.1.2-.2.2h-.4zm-.9-.3c.1 0 .2.1.2.1 0 .1-.1.2-.2.2l-.3.1c-.1 0-.2-.1-.2-.1 0-.1.1-.2.1-.2.1-.1.3-.1.4-.1zm-1.4.3c.1 0 .2 0 .2.1s0 .2-.1.2-.2.1-.3.1-.2 0-.2-.1 0-.2.1-.2l.3-.1zm-1.3.6c.1-.1.2 0 .2.1s0 .2-.1.2l-.3.2c-.1.1-.2 0-.2-.1s0-.2.1-.2l.3-.2zm-1.1.8c.1-.1.2-.1.2 0 .1.1.1.2 0 .2l-.2.2c-.1.1-.2.1-.3 0s-.1-.2 0-.2l.3-.2zm-1 1c.1-.1.2-.1.2-.1.1.1.1.2 0 .2l-.2.3c-.1.1-.2.1-.2.1-.1-.1-.1-.2-.1-.2l.3-.3zm-.7 1.2c0-.1.1-.1.2-.1s.1.1.1.2l-.1.3c0 .1-.1.1-.2.1s-.1-.1-.1-.2.1-.2.1-.3zm-.4 1.3c0-.1.1-.2.2-.1.1 0 .2.1.1.2l-.1.3c0 .1-.1.2-.2.1-.1 0-.2-.1-.2-.2l.2-.3zm-.2 1.3c0-.1.1-.2.2-.2s.2.1.2.2v.3c0 .1-.1.2-.2.2s-.2-.1-.2-.2v-.3zm.1 1.4c0-.1.1-.2.1-.2.1 0 .2.1.2.1 0 .1.1.2.1.3 0 .1 0 .2-.1.2s-.2 0-.2-.1l-.1-.3zm.4 1.3c0-.1 0-.2.1-.2s.2 0 .2.1l.1.3c.1.1 0 .2-.1.2s-.2 0-.2-.1 0-.2-.1-.3zm.7 1.2c-.1-.1 0-.2.1-.2.1-.1.2 0 .2.1l.2.3c.1.1.1.2 0 .2-.1.1-.2.1-.2 0l-.3-.4zm.9 1c-.1-.1-.1-.2 0-.2s.2-.1.2 0l.3.2c.1.1.1.2 0 .2-.1.1-.2.1-.2 0l-.3-.2zm1.2.9c-.1-.1-.1-.2-.1-.2l.2-.1.3.2c.1.1.1.2.1.2-.1.1-.2.1-.2.1l-.3-.2zm1.2.6c-.1 0-.1-.1-.1-.2s.1-.1.2-.1l.3.1c.1 0 .2.1.1.2 0 .1-.1.1-.2.1l-.3-.1zm1.4.3c-.1 0-.2-.1-.1-.2 0-.1.1-.2.2-.1l.3.1c.1 0 .2.1.2.2s-.1.2-.2.2l-.4-.2zm1.4.1c-.1 0-.2-.1-.2-.2s.1-.2.2-.2h.3c.1 0 .2.1.2.2s-.1.2-.2.2h-.3zm1.4-.2c-.1 0-.2 0-.2-.1s0-.2.1-.2l.3-.1c.1 0 .2 0 .2.1s0 .2-.1.2l-.3.1zm1.4-.5c-.1.1-.2 0-.2-.1-.1-.1 0-.2.1-.2.1-.1.2-.1.3-.2s.2 0 .2.1c.1.1 0 .2-.1.2l-.3.2zm1.2-.7c-.1.1-.2.1-.2 0-.1-.1-.1-.2 0-.2l.3-.2c.1-.1.2-.1.2 0 .1.1.1.2 0 .2-.1.1-.2.2-.3.2zm1-.9c-.1.1-.2.1-.2 0-.1-.1-.1-.2 0-.2l.2-.2c.1-.1.2-.1.2 0 .1.1.1.2 0 .2l-.2.2zm.9-1.1c-.1.1-.2.1-.2.1-.1-.1-.1-.2-.1-.2l.2-.3c.1-.1.2-.1.2-.1.1.1.1.1.1.2l-.2.3zm.5-1.2c0 .1-.1.1-.2.1s-.1-.1-.1-.2l.1-.3c0-.1.1-.2.2-.1.1 0 .2.1.1.2l-.1.3zm.3-1.4c0 .1-.1.2-.2.2s-.2-.1-.2-.2v-.3c0-.1.1-.2.2-.2s.2.1.2.2v.3zm0-1.3c0 .1-.1.2-.2.2s-.2-.1-.2-.2 0-.2-.1-.3c0-.1.1-.2.2-.2s.2.1.2.1c.1.1.1.3.1.4zm-.3-1.4c0 .1 0 .2-.1.2s-.2 0-.2-.1-.1-.2-.1-.3c0-.1 0-.2.1-.2s.2 0 .2.1c.1.1.1.2.1.3zm-.5-1.2c.1.1 0 .2-.1.2-.1.1-.2 0-.2-.1l-.2-.3c-.1-.1 0-.2.1-.2.1-.1.2 0 .2.1l.2.3zm-.8-1.1c.1.1.1.2 0 .2-.1.1-.2.1-.2 0l-.2-.2c-.1-.1-.1-.2 0-.2.1-.1.2-.1.2 0l.2.2zm-1.1-1c.1.1.1.2 0 .2-.1.1-.2.1-.2 0l-.3-.2c-.1-.1-.1-.2-.1-.2.1-.1.2-.1.2-.1l.4.3zm-1.2-.7c.1 0 .1.1.1.2-.1.1-.2.1-.2.1l-.3-.1c-.1 0-.1-.1-.1-.2s.1-.1.2-.1l.3.1zm-1.3-.5c.1 0 .2.1.1.2 0 .1-.1.1-.2.1l-.3-.1c-.1 0-.2-.1-.1-.2 0-.1.1-.2.2-.1l.3.1z" fill-rule="evenodd" clip-rule="evenodd" fill="#71bcbc"/>
  <path class="st14" d="M574.8 358.9s-1.1 1.1-1 3 1 7.1 1 7.1 1-5.2 1-7.1c.1-1.9-1-3-1-3zm-6.7 16.5s1.4 0 2.6-1.3c1.2-1.2 4.1-5.1 4.1-5.1s-4.1 2.7-5.4 3.9c-1.2 1.2-1.3 2.5-1.3 2.5z"/>
  <path class="st15" d="M574.8 370.5c.9 0 1.6-.7 1.6-1.5s-.7-1.5-1.6-1.5-1.6.7-1.6 1.5.8 1.5 1.6 1.5zM574.6 355.1c0-.1.1-.2.2-.2s.2.1.2.2v1.8c0 .1-.1.2-.2.2s-.2-.1-.2-.2v-1.8zm12.9 1.1c.1-.1.2-.1.3 0s.1.2 0 .3l-1.7 1.6c-.1.1-.2.1-.3 0s-.1-.2 0-.3l1.7-1.6zm-12.9 24c0-.1.1-.2.2-.2s.2.1.2.2v1.8c0 .1-.1.2-.2.2s-.2-.1-.2-.2v-1.8zm-11-1.3c.1-.1.2-.1.3 0s.1.2 0 .3l-1.7 1.6c-.1.1-.2.1-.3 0s-.1-.2 0-.3l1.7-1.6zm25.4-10.6c.1 0 .2.1.2.2s-.1.2-.2.2h-1.9c-.1 0-.2-.1-.2-.2s.1-.2.2-.2h1.9zm-1.2 12.2c.1.1.1.2 0 .3-.1.1-.2.1-.3 0l-1.7-1.6c-.1-.1-.1-.2 0-.3.1-.1.2-.1.3 0l1.7 1.6zm-25.2-12.2c.1 0 .2.1.2.2s-.1.2-.2.2h-1.9c-.1 0-.2-.1-.2-.2s.1-.2.2-.2h1.9zm1.3-10.5c.1.1.1.2 0 .3-.1.1-.2.1-.3 0l-1.7-1.6c-.1-.1-.1-.2 0-.3.1-.1.2-.1.3 0l1.7 1.6z"/>
  <path class="st16" d="M528.9 365.4c-1.4-2-8.5-3.5-15.7-3.5H272.8c-7.2 0-14.2 1.5-15.6 3.5-5.9 8-12.4 16.8-19.5 26.5l-22.4 30.3H211v6.6c-.1 2.8 5.4 4.9 13.9 4.9h335.8c8.5 0 14.1-2.1 14.1-4.9v-6.6h-4.3l-22.2-30.3c-7.1-9.6-13.5-18.4-19.4-26.5z"/>
  <path class="st12" d="M528.9 358.8c-1.4-2-8.5-3.5-15.7-3.5H272.8c-7.2 0-14.2 1.5-15.6 3.5-5.9 8-12.4 16.8-19.5 26.5-7.8 10.6-16.4 22.3-26.1 35.3-2.7 3.6 3.3 6.6 13.3 6.6h335.8c10.1 0 16.1-3 13.5-6.6-9.5-13-18.1-24.7-25.8-35.3-7.2-9.7-13.6-18.4-19.5-26.5z"/>
  <path d="M251 390.6c3.3-5.1 6.6-10 9.6-14.6 2.9-4.5 5.7-8.7 8.5-12.7.8-1.2 4.7-2.1 8.8-2.1H508c4.1 0 8 .9 8.8 2.1 2.7 4.1 5.4 8.3 8.3 12.7 3 4.6 6.2 9.5 9.6 14.6 1.1 1.5-2 2.8-6.9 2.8H257.7c-4.7 0-7.7-1.2-6.7-2.8z" fill-rule="evenodd" clip-rule="evenodd" fill="#d8e0e3"/>
  <path class="st18" d="M290.8 363h-12.4c-.7 0-1.4.2-1.5.4-.4.6-.8 1.3-1.2 1.9-.1.2.4.4 1.1.4h12.6c.7 0 1.4-.2 1.5-.4.4-.6.7-1.3 1.1-1.9 0-.2-.4-.4-1.2-.4zm19.8 0h-12.5c-.7 0-1.3.2-1.4.4-.3.6-.7 1.2-1 1.9-.1.2.4.4 1.1.4h12.7c.7 0 1.3-.2 1.4-.4.3-.6.6-1.3.8-1.9 0-.2-.5-.4-1.1-.4zm19.7 0h-12.5c-.7 0-1.3.2-1.4.4-.2.6-.5 1.2-.8 1.9-.1.2.4.4 1.1.4h12.7c.7 0 1.3-.2 1.4-.4.2-.6.4-1.3.6-1.9.1-.2-.4-.4-1.1-.4zm19.7 0h-12.5c-.7 0-1.3.2-1.4.4-.2.6-.4 1.2-.6 1.9-.1.2.4.4 1.2.4h12.7c.7 0 1.3-.2 1.3-.4.1-.6.3-1.3.4-1.9.1-.2-.5-.4-1.1-.4zm19.7 0h-12.5c-.7 0-1.2.2-1.3.4-.1.6-.2 1.2-.4 1.9-.1.2.5.4 1.2.4h12.7c.7 0 1.2-.2 1.3-.4.1-.6.2-1.3.2-1.9 0-.2-.6-.4-1.2-.4zm19.7 0h-12.5c-.7 0-1.2.2-1.2.4-.1.6-.1 1.2-.2 1.9 0 .2.5.4 1.2.4h12.7c.7 0 1.2-.2 1.3-.4v-1.9c-.1-.2-.6-.4-1.3-.4zm19.7 0h-12.5c-.7 0-1.2.2-1.2.4v1.9c0 .2.6.4 1.2.4h12.7c.7 0 1.2-.2 1.2-.4-.1-.6-.1-1.3-.2-1.9 0-.2-.6-.4-1.2-.4zm19.7 0h-12.5c-.7 0-1.2.2-1.2.4.1.6.1 1.2.2 1.9 0 .2.6.4 1.3.4h12.7c.7 0 1.2-.2 1.2-.4-.1-.6-.2-1.3-.4-1.9-.1-.2-.7-.4-1.3-.4zm19.7 0H436c-.7 0-1.2.2-1.1.4.1.6.3 1.2.4 1.9.1.2.6.4 1.3.4h12.7c.7 0 1.2-.2 1.2-.4-.2-.6-.4-1.3-.6-1.9-.1-.2-.7-.4-1.4-.4zm19.7 0h-12.5c-.7 0-1.2.2-1.1.4.2.6.4 1.2.6 1.9.1.2.7.4 1.4.4h12.7c.7 0 1.2-.2 1.1-.4-.2-.6-.5-1.3-.7-1.9-.3-.2-.9-.4-1.5-.4zm19.7 0h-12.5c-.7 0-1.2.2-1.1.4.2.6.6 1.2.8 1.9.1.2.7.4 1.4.4h12.7c.7 0 1.2-.2 1.1-.4-.3-.6-.7-1.3-1-1.9-.1-.2-.8-.4-1.4-.4zm19.6 0h-12.4c-.7 0-1.2.2-1.1.4.3.6.7 1.3 1.1 1.9.1.2.7.4 1.5.4h12.6c.7 0 1.2-.2 1.1-.4-.4-.6-.8-1.3-1.2-1.9-.2-.2-.9-.4-1.6-.4zm-218.9 4.2h-12.7c-.7 0-1.4.2-1.5.4-.7 1.1-1.4 2.2-2 3.3-.1.2.4.4 1.1.4h13c.7 0 1.4-.2 1.5-.4l1.8-3.3c0-.3-.5-.4-1.2-.4zm20.2 0H296c-.7 0-1.4.2-1.4.4-.6 1.1-1.1 2.2-1.7 3.3-.1.2.4.4 1.1.4h13c.7 0 1.4-.2 1.4-.4.5-1.1 1-2.2 1.4-3.3.1-.3-.4-.4-1-.4zm20.1 0h-12.8c-.7 0-1.3.2-1.4.4-.4 1.1-.9 2.2-1.4 3.3-.1.2.4.4 1.1.4h13c.7 0 1.4-.2 1.4-.4.4-1.1.7-2.2 1.1-3.3.2-.3-.3-.4-1-.4zm20.1 0h-12.8c-.7 0-1.3.2-1.4.4-.3 1.1-.7 2.2-1 3.3-.1.2.4.4 1.2.4h13c.7 0 1.3-.2 1.4-.4.2-1.1.5-2.2.7-3.3.1-.3-.4-.4-1.1-.4zm20.2 0h-12.8c-.7 0-1.3.2-1.3.4-.2 1.1-.4 2.2-.7 3.3-.1.2.5.4 1.2.4h13c.7 0 1.3-.2 1.3-.4.1-1.1.2-2.2.4-3.3.1-.3-.5-.4-1.1-.4zm20.1 0h-12.8c-.7 0-1.2.2-1.3.4l-.3 3.3c0 .2.6.4 1.2.4h13c.7 0 1.3-.2 1.3-.4 0-1.1.1-2.2.1-3.3.1-.3-.5-.4-1.2-.4zm20.1 0h-12.8c-.7 0-1.3.2-1.3.4v3.3c0 .2.6.4 1.3.4h13c.7 0 1.2-.2 1.2-.4l-.3-3.3c.2-.3-.4-.4-1.1-.4zm20.2 0h-12.8c-.7 0-1.2.2-1.2.4.1 1.1.2 2.2.4 3.3 0 .2.6.4 1.3.4h13c.7 0 1.2-.2 1.2-.4l-.6-3.3c-.1-.2-.7-.4-1.3-.4zm20 0h-12.8c-.7 0-1.2.2-1.2.4.2 1.1.5 2.2.7 3.3.1.2.7.4 1.4.4h13c.7 0 1.2-.2 1.2-.4-.3-1.1-.7-2.2-1-3.3.1-.2-.5-.4-1.3-.4zm20.2 0H457c-.7 0-1.2.2-1.2.4.4 1.1.7 2.2 1.1 3.3.1.2.7.4 1.4.4h13c.7 0 1.2-.2 1.1-.4-.4-1.1-.9-2.2-1.3-3.3 0-.2-.6-.4-1.3-.4zm20.2 0h-12.8c-.7 0-1.2.2-1.1.4.5 1.1.9 2.2 1.4 3.3.1.2.7.4 1.4.4h13c.7 0 1.2-.2 1.1-.4-.6-1.1-1.1-2.2-1.7-3.3 0-.2-.7-.4-1.3-.4zm20 0h-12.7c-.7 0-1.2.2-1.1.4l1.8 3.3c.1.2.8.4 1.5.4h13c.7 0 1.2-.2 1.1-.4-.7-1.1-1.4-2.2-2-3.3-.2-.3-.9-.4-1.6-.4zM306.2 372.9h-33.9c-.7 0-1.4.2-1.5.4-.7 1.2-1.4 2.3-2.2 3.5-.1.2.3.4 1.1.4h34.6c.7 0 1.4-.2 1.5-.4.5-1.2 1-2.3 1.5-3.5.2-.3-.3-.4-1.1-.4zm20.7 0h-13.2c-.7 0-1.4.2-1.4.4-.5 1.2-.9 2.3-1.4 3.5-.1.2.4.4 1.1.4h13.4c.7 0 1.4-.2 1.5-.4.4-1.2.7-2.3 1.2-3.5.1-.3-.4-.4-1.2-.4zm20.8 0h-13.2c-.7 0-1.4.2-1.4.4-.4 1.2-.7 2.3-1.1 3.5-.1.2.5.4 1.2.4h13.4c.7 0 1.4-.2 1.4-.4.2-1.2.5-2.3.8-3.5.1-.3-.4-.4-1.1-.4zm20.7 0h-13.2c-.7 0-1.3.2-1.4.4-.2 1.2-.5 2.3-.7 3.5-.1.2.5.4 1.2.4h13.4c.7 0 1.4-.2 1.4-.4.1-1.2.3-2.3.4-3.5.2-.3-.3-.4-1.1-.4zm20.7 0h-13.2c-.7 0-1.3.2-1.3.4-.1 1.2-.2 2.3-.3 3.5 0 .2.6.4 1.3.4H389c.7 0 1.4-.2 1.4-.4 0-1.2.1-2.3.1-3.5-.1-.3-.6-.4-1.4-.4zm20.8 0h-13.2c-.7 0-1.3.2-1.3.4 0 1.2 0 2.3.1 3.5 0 .2.6.4 1.4.4h13.4c.7 0 1.3-.2 1.3-.4-.1-1.2-.2-2.3-.3-3.5-.1-.3-.7-.4-1.4-.4zm20.7 0h-13.2c-.7 0-1.2.2-1.2.4.1 1.2.2 2.3.4 3.5 0 .2.6.4 1.4.4h13.4c.7 0 1.3-.2 1.2-.4-.2-1.2-.4-2.3-.7-3.5 0-.3-.6-.4-1.3-.4zm20.7 0h-13.2c-.7 0-1.2.2-1.2.4.2 1.2.5 2.3.7 3.5.1.2.7.4 1.4.4h13.4c.7 0 1.3-.2 1.2-.4-.4-1.2-.7-2.3-1.1-3.5.2-.3-.4-.4-1.2-.4zm20.8 0h-13.2c-.7 0-1.2.2-1.2.4.4 1.2.7 2.3 1.1 3.5.1.2.7.4 1.5.4h13.4c.7 0 1.2-.2 1.1-.4-.5-1.2-.9-2.3-1.4-3.5 0-.3-.6-.4-1.3-.4zm41.4 0h-33.8c-.7 0-1.2.2-1.1.4.5 1.2 1 2.3 1.5 3.5.1.2.8.4 1.5.4h34.6c.7 0 1.2-.2 1.1-.4-.7-1.2-1.4-2.3-2.2-3.5-.2-.3-.9-.4-1.6-.4zM335.5 378.8H322c-.7 0-1.4.2-1.5.4-.4 1.2-.9 2.5-1.3 3.7-.1.2.4.4 1.2.4h13.8c.7 0 1.4-.2 1.5-.4.4-1.2.7-2.5 1.1-3.7 0-.2-.5-.4-1.3-.4zM356.9 378.8h-13.5c-.7 0-1.4.2-1.5.4-.3 1.2-.6 2.5-.9 3.7-.1.2.5.4 1.2.4H356c.7 0 1.4-.2 1.5-.4.2-1.2.4-2.5.6-3.7.1-.2-.5-.4-1.2-.4zM378.2 378.8h-13.5c-.7 0-1.4.2-1.4.4-.2 1.2-.4 2.5-.6 3.7-.1.2.6.4 1.3.4h13.8c.7 0 1.4-.2 1.4-.4.1-1.2.2-2.5.2-3.7.1-.2-.5-.4-1.2-.4zM399.6 378.8h-13.5c-.7 0-1.3.2-1.4.4-.1 1.2-.1 2.5-.2 3.7 0 .2.6.4 1.3.4h13.8c.7 0 1.4-.2 1.4-.4-.1-1.2-.1-2.5-.1-3.7 0-.2-.6-.4-1.3-.4zM420.9 378.8h-13.5c-.7 0-1.3.2-1.3.4.1 1.2.2 2.5.2 3.7 0 .2.6.4 1.4.4h13.8c.7 0 1.4-.2 1.3-.4-.2-1.2-.4-2.5-.6-3.7.1-.2-.6-.4-1.3-.4zM442.3 378.8h-13.5c-.7 0-1.3.2-1.3.4.2 1.2.4 2.5.6 3.7.1.2.7.4 1.5.4h13.8c.7 0 1.3-.2 1.2-.4-.3-1.2-.6-2.5-.9-3.7 0-.2-.7-.4-1.4-.4zM463.7 378.8h-13.5c-.7 0-1.3.2-1.2.4.3 1.2.7 2.5 1 3.7.1.2.7.4 1.5.4h13.8c.7 0 1.3-.2 1.2-.4-.4-1.2-.9-2.5-1.3-3.7-.2-.2-.8-.4-1.5-.4zM517.1 378.8h-44.7c-.6 0-1.1.2-1 .4.5 1.2 1 2.5 1.5 3.8.1.2.6.4 1.3.4h45.7c.7 0 1.2-.2 1.1-.4-.7-1.2-1.5-2.5-2.3-3.7-.1-.3-.9-.5-1.6-.5zM313.2 378.8h-44.8c-.6 0-1.2.2-1.4.4-.8 1.3-1.6 2.5-2.4 3.8-.1.2.3.4.9.4h45.7c.7 0 1.4-.2 1.5-.4.5-1.2 1-2.5 1.4-3.7.4-.3-.1-.5-.9-.5zM278.8 385.2h-14c-.7 0-1.5.2-1.7.4-1 1.6-2 3.2-3 4.9-.2.2.3.5 1.1.5h14.3c.7 0 1.5-.2 1.7-.5.9-1.7 1.8-3.3 2.7-4.9.2-.3-.4-.4-1.1-.4zm22 0h-14c-.7 0-1.5.2-1.6.4-.8 1.6-1.7 3.2-2.5 4.9-.1.2.4.5 1.2.5h14.3c.8 0 1.5-.2 1.6-.5.7-1.7 1.4-3.3 2.1-4.9.2-.3-.3-.4-1.1-.4zm22 0h-14c-.7 0-1.4.2-1.5.4-.7 1.6-1.3 3.2-2 4.9-.1.2.4.5 1.2.5h14.3c.8 0 1.5-.2 1.6-.5.6-1.7 1.1-3.3 1.6-4.9.2-.3-.4-.4-1.2-.4zm22.1 0h-14c-.8 0-1.4.2-1.5.4-.5 1.6-1 3.2-1.5 4.9-.1.2.5.5 1.3.5h14.3c.7 0 1.4-.2 1.5-.5.4-1.7.7-3.3 1.1-4.9.1-.3-.5-.4-1.2-.4zm88 0h-80c-.7 0-1.4.2-1.5.4-.3 1.6-.6 3.2-1 4.9-.1.2.6.5 1.3.5h82.1c.7 0 1.4-.2 1.3-.5-.3-1.7-.6-3.3-.9-4.9.1-.3-.6-.4-1.3-.4zm22 0h-14c-.7 0-1.3.2-1.2.4.4 1.6.7 3.2 1.1 4.9.1.2.7.5 1.5.5h14.3c.8 0 1.4-.2 1.3-.5-.5-1.7-1-3.3-1.5-4.9 0-.3-.7-.4-1.5-.4zm22.1 0h-14c-.8 0-1.4.2-1.2.4.5 1.6 1.1 3.2 1.6 4.9.1.2.8.5 1.6.5h14.3c.7 0 1.3-.2 1.2-.5-.7-1.7-1.3-3.3-2-4.9-.1-.3-.8-.4-1.5-.4zm22 0h-14c-.7 0-1.3.2-1.2.4.7 1.6 1.4 3.2 2.1 4.9.1.2.9.5 1.6.5h14.3c.8 0 1.3-.2 1.2-.5-.9-1.7-1.7-3.3-2.5-4.9-.1-.3-.8-.4-1.5-.4zm22 0h-14c-.7 0-1.2.2-1.1.4.9 1.6 1.7 3.2 2.6 4.9.1.2.9.5 1.7.5h14.3c.8 0 1.3-.2 1.1-.5-1-1.7-2-3.3-3-4.9-.1-.3-.9-.4-1.6-.4z"/>
  <path class="st16" d="M432.6 397.6h-79.4c-3.1 0-5.8.8-6.1 1.9-.7 2.8-1.5 5.7-2.3 8.8-.8 3.1-1.7 6.3-2.5 9.6-.3 1.3 2.2 2.3 5.7 2.3h89.8c3.5 0 6-1.1 5.7-2.3-.9-3.3-1.7-6.6-2.5-9.6-.7-3-1.5-5.9-2.2-8.8-.4-1.1-3.1-1.9-6.2-1.9z"/>
  <path class="st19" d="M267.6 195.4h250.5c4.6 0 8.5 3.6 8.5 8v145.8c0 4.5-3.8 8-8.5 8H267.6c-4.6 0-8.5-3.6-8.5-8V203.5c0-4.5 3.9-8.1 8.5-8.1z"/>
  <path class="st12" d="M269.7 205.5h246.2v141.8H269.7V205.5z"/>
  <path d="M312.8 354.4h160c1.7 0 3 1.3 3 2.8s-1.4 2.8-3 2.8h-160c-1.7 0-3-1.3-3-2.8.1-1.5 1.4-2.8 3-2.8z" fill-rule="evenodd" clip-rule="evenodd" fill="#55545a"/>
  <path class="st12" d="M288.5 205.5h207.9v141.8H288.5V205.5z"/>
  <path d="M269 332.3h247v15H269v-15z" fill-rule="evenodd" clip-rule="evenodd" fill="#333138"/>
  <path class="st16" d="M269.7 205.5h246.2V218H269.7v-12.5z"/>
  <path class="st12" d="M296.2 336.6v8.7l5.5-4.3-5.5-4.4zm10 1.1v6.6l4.2-3.3-4.2-3.3zm5 0h1.7v6.5h-1.7v-6.5zm174.5 6.5c.2 0 .4.2.4.4s-.2.4-.4.4h-2.2c-.2 0-.4-.2-.4-.4v-2.1c0-.2.2-.4.4-.4s.4.2.4.4v1.7h1.8zm-1.8-4.7c0 .2-.2.4-.4.4s-.4-.2-.4-.4v-2.1c0-.2.2-.4.4-.4h2.2c.2 0 .4.2.4.4s-.2.4-.4.4h-1.8v1.7zm5.1-1.8c-.2 0-.4-.2-.4-.4s.2-.4.4-.4h2.2c.2 0 .4.2.4.4v2.1c0 .2-.2.4-.4.4s-.4-.2-.4-.4v-1.7H489zm1.7 4.9c0-.2.2-.4.4-.4s.4.2.4.4v2.1c0 .2-.2.4-.4.4h-2.2c-.2 0-.4-.2-.4-.4s.2-.4.4-.4h1.8v-1.7z"/>
  <path class="st19" d="M294.2 214.2c1.4 0 2.5-1.1 2.5-2.4s-1.2-2.4-2.5-2.4-2.5 1.1-2.5 2.4 1.1 2.4 2.5 2.4zm10.2 0c1.4 0 2.5-1.1 2.5-2.4s-1.2-2.4-2.5-2.4c-1.4 0-2.5 1.1-2.5 2.4s1.1 2.4 2.5 2.4zm10.2 0c1.4 0 2.5-1.1 2.5-2.4s-1.2-2.4-2.5-2.4c-1.4 0-2.5 1.1-2.5 2.4s1.1 2.4 2.5 2.4z"/>
  <path class="st14" d="M269 329.8h247v5H269v-5z"/>
  <path d="M363.4 329.8H516v5H363.4v-5z" opacity=".69" fill-rule="evenodd" clip-rule="evenodd" fill="#82d1cf"/>
  <g>
    <path class="st23" d="M456.1 304.8s4.9-7.4 1.1-17.7h-13.4s4.1 7.2 0 17.7h12.3zm-5.7 2.3h-6.6l3.3 7.2 4.7-3.6 8 3.6-3.2-7.2h-6.2zm37.6-22.2s-16 1.5-28.1 2.1c1.8 5.2 1.6 9.7.8 13.1 15.1.9 27 2.9 31.3 3.7 2.8-6.1 2-17.3-4-18.9zm-47.3 2.1c-12.2-.6-28.8-2.2-28.8-2.2-8.6 2.4-6.5 24.3 1.3 22.8 5-.9 18.5-2 27.7-2.7l.5-1.2c.2-.5.4-1 .5-1.4-9.3.2-18.9 1.1-28.2 3.1-.5.1-1-.1-1.3-.5-.1-.1-6.6-8.4-.4-17.3.4-.6 1.2-.8 1.9-.3.2.1 5.1 3.6 3.1 12.8-.2.7-.9 1.2-1.6 1s-1.2-.9-1-1.6c1.1-4.8-.1-7.5-1-8.9-2.8 5.4-.3 10.3.7 12.1 9.5-1.9 19.3-2.7 28.6-3 1.4-6.7-.9-11.1-1.1-11.3l-.9-1.4zm18.3 18c9.2.6 22.7 1.7 27.7 2.7 1.5.3 2.8-.3 3.9-1.5-5-.9-16.4-2.7-30.6-3.5-.3 1-.7 1.7-1 2.3z"/>
    <path class="st24" d="M472 275.9l2.1-10.4-21.5 3.7c-1.9.3-3.9.1-5.2-.2-1.3-.3-3.2-.8-4.8-1.8l-18.5-11.7-2.1 10.4s4.5 10.6 23.1 14.3c18.6 3.7 26.9-4.3 26.9-4.3z"/>
    <path class="st24" d="M496.1 256.3l-37.5-23.8c-1.9-1.2-5.3-1.9-7.5-1.5l-43.8 7.5c-2.2.4-2.5 1.7-.6 2.9l37.5 23.8c1.9 1.2 5.3 1.9 7.5 1.5l31.2-5.4-1.9 9.5c-1.3.4-2.9 1.4-3.6 4.2-1.2 5.2-1.3 8.5-4.5 10.4 0 0 .8 1.5 3.2 1.7l2.5-4.6s.2 1.8-.3 5.1c0 0 3.6.8 4.7-.3 0 0 4.8-11.3 1.7-15.4l2.3-11.3 8.4-1.4c2.3-.4 2.6-1.7.7-2.9z"/>
  </g>
  <circle cx="268.2" cy="270.5" r="11.6" fill="#00c895" fill-opacity="0"/>
  <g>
    <circle class="st23" cx="294.9" cy="252.8" r="4.6"/>
    <circle class="st23" cx="294.7" cy="268.1" r="4.6"/>
    <circle class="st23" cx="294.3" cy="282.4" r="4.6"/>
    <circle class="st23" cx="294.3" cy="297.5" r="4.6"/>
    <g>
      <path class="st4" d="M306 248.2h67.7v9.2H306v-9.2zm-.2 15.3h67.7v9.2h-67.7v-9.2zm-.3 14.3h67.7v9.2h-67.7v-9.2zm0 15.1h67.7v9.2h-67.7v-9.2z"/>
    </g>
  </g>
  <g>
    <g class="st6">
      <path class="st12" d="M696.6 188.4c1.6 0 2.9 1.2 2.9 2.9 0 1.6-1.3 3-2.9 3.1-1.6 0-2.9-1.2-2.9-2.9s1.4-3 2.9-3.1z"/>
      <path class="st12" d="M696.7 184.9c1.7-.1 3.3.6 4.4 1.8 1.1 1.1 1.8 2.7 1.8 4.5s-.7 3.5-1.9 4.6c-1.2 1.2-2.7 2-4.5 2-1.7.1-3.3-.6-4.4-1.8-1.1-1.2-1.8-2.7-1.8-4.5s.7-3.5 1.9-4.6c1.1-1.2 2.7-1.9 4.5-2zm3.3 3c-.8-.9-2-1.4-3.3-1.3-1.3 0-2.5.6-3.4 1.5s-1.4 2.2-1.4 3.5.5 2.6 1.4 3.4c.8.9 2 1.4 3.3 1.3 1.3 0 2.5-.6 3.4-1.5s1.4-2.2 1.4-3.5c0-1.4-.5-2.5-1.4-3.4z"/>
      <path class="st12" d="M711.3 212.7s-2.3 10.8-3.9 14.1v5.2c.2 2.4-.8 3.6-2.6 3.7l-8.3.2c-1.2 0-3.3.9-3.3-2.7l.1-5.8s-3.3-3.2-4.3-5.8c-.7-2.1-3-10.8-4-14.3-.2-.8.2-1.7 1-2.1.7-.3 1.5 0 2 .6l3 4.8c.5.8 1.6 1.1 2.5.5.5-.3.9-.9.9-1.5l.9-18c0-.7.6-1.2 1.2-1.3h.2c.7-.1 1.3.5 1.3 1.2l.8 17c0 .9 2.1-2.2 4.9.6 0 0 3.4-1.6 4.8 1-.1 0 2.3-.7 2.8 2.6z"/>
    </g>
    <g class="st6">
      <path class="st3" d="M690 144l5.5-1.2 2.8 4.9.6-5.6 5.5-1.2-5.2-2.3.6-5.6-3.8 4.2-5.2-2.3 2.8 4.9-3.6 4.2zm6.4-5.6l2.3-2.5-.4 3.4 3.1 1.4-3.3.7-.4 3.4-1.7-2.9-3.3.7 2.3-2.5-1.7-2.9 3.1 1.2zm14.8 38.4l2.2 1.7-.2 2.7 2.3-1.6 2.6 1-.8-2.6 1.8-2.1-2.8-.1-1.5-2.3-1 2.6-2.6.7zm3.9-1.4l.8 1.2h1.4l-.9 1.1.4 1.4-1.3-.5-1.2.8.1-1.4-1.1-.9 1.4-.4.4-1.3zm-4.1-32.8c.2 1.7 1.8 3 3.5 2.8 1.8-.2 3-1.8 2.9-3.5s-1.8-3-3.5-2.8c-1.8.1-3.1 1.7-2.9 3.5zm3-2.7c1.3-.1 2.4.7 2.6 2 .1 1.3-.8 2.4-2.1 2.5s-2.4-.7-2.6-2 .8-2.3 2.1-2.5zm10.4 4.9l-.4.5c.4.2.7.5 1.1.7l.4-.5c-.3-.2-.7-.5-1.1-.7zm8.2 13l-.7.1c.1.9.1 1.9.1 2.8h.7c0-.9 0-1.9-.1-2.9zm-.6-2.8c-.3-.9-.6-1.8-1-2.7l-.6.3c.4.8.7 1.7 1 2.6l.6-.2zm-1.1 11.2l.6.2c.3-.9.6-1.9.8-2.8l-.6-.1c-.2.9-.5 1.8-.8 2.7zm-1.9-16.1l.5-.4c-.5-.8-1.2-1.6-1.8-2.3l-.5.5c.7.7 1.2 1.4 1.8 2.2zm.5 20.1c.1-.1.1-.2.2-.3.2-.3.3-.5.5-.8l-.6-.3c-.2.4-.4.7-.7 1.1l.6.3z"/>
    </g>
  </g>
  <path d="M199.3 410.6l-11.7-14c-.6-.7-1.1-.5-1.3-.3l-.1.1-3.4 3s-.7.9-.2 1.5 1.2 0 1.2 0l2.9-2.6 8.3 10c-.5-.2-1-.3-1.6-.3h-10.7c-1.5 0-2.8.8-3.5 2v-.1h-3.9v.1c-.7-1.2-2-2-3.5-2H161c-.6 0-1.1.1-1.6.3l8.4-10 3.3 2.9c.2.1.5.1.8-.3.7-.8.1-1.3.1-1.3l-3.4-3c-.9-.8-1.5-.4-1.8-.1l-11.7 14s-.4.1-.4.6v1.7c0 .2.1.8.9.8h1.3l.2 2.8c0 2.1 1.7 5.3 4.1 5.3h9.5c2.3 0 4.7-3.1 4.7-5.3v-.4h3.3v.3c0 2.2 2.4 5.3 4.7 5.3h9.5c2.4 0 4.1-3.2 4.1-5.3l.2-2.8h1.7c.2 0 .6-.1.6-.6v-1.8c.3-.5-.2-.5-.2-.5zm-24.9 5.8c0 1.6-1.9 4.1-3.5 4.1h-9.5c-1.5 0-2.9-2.4-2.9-4.2l-.3-4.2c0-1.6 1.3-2.9 2.9-2.9h10.7c1.6 0 2.9 1.3 2.9 2.9l-.3 4.3zm1.4-2.8l.1-1.3h2.7l.1 1.3h-2.9zm20.3 2.8c0 1.8-1.4 4.1-2.9 4.1h-9.5c-1.6 0-3.5-2.5-3.5-4.2l-.3-4.2c0-1.6 1.3-2.9 2.9-2.9h10.7c1.6 0 2.9 1.3 2.9 2.9l-.3 4.3z" fill="#20262b"/>
  <g>
    <path class="st3" d="M115.6 339H76.1c-13 0-23.6-10.6-23.6-23.6s10.6-23.6 23.6-23.6h39.4c13 0 23.6 10.6 23.6 23.6S128.6 339 115.6 339zm-39.5-43.3c-10.8 0-19.6 8.8-19.6 19.6s8.8 19.6 19.6 19.6h39.4c10.8 0 19.6-8.8 19.6-19.6s-8.8-19.6-19.6-19.6H76.1z"/>
    <path class="st4" d="M75.5 325.7c-5.7 0-10.3-4.6-10.3-10.3S69.7 305 75.5 305c5.7 0 10.3 4.6 10.3 10.3 0 5.8-4.6 10.4-10.3 10.4zm0-16.7c-3.5 0-6.3 2.8-6.3 6.3s2.8 6.3 6.3 6.3 6.3-2.8 6.3-6.3c0-3.4-2.9-6.3-6.3-6.3zm50.2 8.4H91.3c-1.1 0-2-.9-2-2s.9-2 2-2h34.4c1.1 0 2 .9 2 2s-.9 2-2 2z"/>
  </g>
  <g>
    <path class="st8" d="M188.5 38.2l-1.6-3 1.6-3-3.3.6-2.4-2.4-.5 3.4-3 1.5 3 1.5.5 3.3 2.4-2.4 3.3.5zm-5-.5l-.3-1.7-1.6-.8 1.6-.8.2-1.7 1.2 1.2 1.7-.3-.8 1.6.8 1.5-1.7-.3-1.1 1.3zm-5.3 15.4c.7-2.1-.5-4.3-2.5-4.9-2.1-.7-4.3.5-4.9 2.5-.7 2.1.5 4.3 2.5 4.9 2 .7 4.2-.4 4.9-2.5zm-4.6 1.5c-1.5-.5-2.3-2.1-1.8-3.5.5-1.5 2.1-2.3 3.5-1.8 1.5.5 2.3 2.1 1.8 3.5s-2 2.3-3.5 1.8z"/>
    <g class="st6">
      <path class="st3" d="M232.5 48.4c.3-.1 8.2-3.5 11.6-12l2.5-.9c9.6-3.6 17.3-9.7 20.4-17.1l.3-1.2-.9-.7c-6.3-4.1-18.2-4.3-28.4-.5l-1.3.4c-8.8-4.3-16.6-1.7-17.3-1.5l-6.9 2.3c-.9.3-1.7 1.3-1.3 2.2l.2.6c.3.9 1.2 1.4 1.9 1.5 4.3.3 7.9 1.5 9.6 2.7-.5.5-1 1.1-1.2 1.5l-.5.5 1.4 4.1-3.8 1.3c-.6.2-1 1.1-.8 1.7.2.6 1.1 1 1.7.8l3.8-1.3 1.2 3.4.7.1 2.2.3c-.6 2.3-2.7 5.5-6.1 8.7-.5.5-.9 1.4-.6 2.3l.2.6c.6.8 1.5 1.2 2.4.9.6 1.5 9-.7 9-.7zm-15-28.7l4.1-1.4s5.7-1.6 12.2 0c-2.7 1.3-5 2.7-7.2 4.5-2.6-1.5-6.2-2.7-9.1-3.1zM228 35.3l-.5-1.6 1.9-.6c.6-.2 1-1.1.8-1.7-.2-.6-1.1-1-1.7-.8l-1.9.6-.9-2.5c3.7-3.4 8.4-7.1 14.4-9.1 8.7-3.3 18.5-3.1 24.4-.2-3.3 5.7-9.8 11.3-17.8 14.4-7.2 1.4-13.2 2.1-18.7 1.5zm-.4 12c2.3-2.5 4-5.6 5-9 2.8.1 5.5-.1 8.4-1.1-3.7 5.5-9.5 8.1-9.5 8.1l-3.9 2z"/>
      <path class="st3" d="M215.4 36.1c-.2-.6-1.1-1-1.7-.8l-8.3 3.2c-.6.2-1 1.1-.8 1.7.2.6 1.1 1 1.7.8l8.3-3.2c.7.1 1.1-.8.8-1.7zm4.7-7.6c-.2-.6-1.1-1-1.7-.8l-8.3 3.2c-.6.2-1 1.1-.8 1.7s1.1 1 1.7.8l8.3-3.2c.3-.1 1-1 .8-1.7zm3.6 10.7c-.2-.6-1.1-1-1.7-.8l-8.3 3.2c-.6.2-1 1.1-.8 1.7.2.6 1.1 1 1.7.8l8.3-3.2c.3-.1 1.1-1.1.8-1.7zm26.2-15.5c-1-2.8-4.2-4.2-6.7-3.3-2.5.9-4.2 4.2-3.3 6.7s4.2 4.2 6.7 3.3 4.4-3.6 3.3-6.7zm-6.8 2.6c-.3-.9.3-2.2 1.2-2.5s2.2.3 2.5 1.2c.3.9-.3 2.2-1.2 2.5-.8.7-1.9.4-2.5-1.2z"/>
    </g>
  </g>
  <path d="M384.4 36.1c-3.4 0-6.1 2.7-6.1 6.1 0 3.4 2.7 6.1 6.1 6.1s6.1-2.8 6.1-6.1-2.7-6.1-6.1-6.1z" fill="#04110d"/>
  <g>
    <path class="st3" d="M362.7 23.5h31.5v3.1h-31.5v-3.1zm0 6.2h13.6v3.1h-13.6v-3.1zm0-12.6h31.5v3.1h-31.5v-3.1zm31.6-6.2h-31.6V14h31.6v-3.1z"/>
    <path class="st28" d="M372.8 69.8l5.1-2.7 5 2.7V56.6h-6.4l-3.7 13.2z"/>
    <path class="st3" d="M351.8 0v64.5H371l.8-2.8h-16.4V3.4h45.7v58.4h-3.6l.7 2.7h6.3V0h-52.7z"/>
    <path class="st28" d="M386.8 56.6v13.2l5.1-2.7 5.1 2.7-3.8-13.2h-6.4z"/>
    <path class="st3" d="M390.2 54.8l.7-3.4 3.4-.7-1.1-3.3 2.6-2.3-2.6-2.2 1.1-3.3-3.4-.7-.7-3.4-3.3 1.1-2.3-2.6-2.3 2.6-3.3-1.1-.6 3.4-3.4.7 1.1 3.3-2.6 2.2 2.6 2.3-1.1 3.3 3.4.7.6 3.4 3.3-1.1 2.3 2.6 2.3-2.6 3.3 1.1z"/>
    <path class="st28" d="M377.7 45.1c0-3.9 3.1-7 7-7s7 3.1 7 7c0 3.8-3.1 7-7 7s-7-3.1-7-7z"/>
  </g>
  <path d="M701 267.3l-55.3 1.5c-3.5.1-6.3 3.1-6.3 6.6l.9 36.6c.1 3.5 3.1 6.3 6.6 6.3l.9-.1.5 17.6c.1 1 1.2 1.4 1.9.7l17-18.9 35.1-.9c3.5-.1 6.3-3.1 6.3-6.6l-.9-36.6c-.2-3.5-3.2-6.2-6.7-6.2z" fill="none" stroke="#fff" stroke-width="3" stroke-miterlimit="10"/>
  <path class="st4" d="M686 293.2l-17.7 12c-.9.6-2.1 0-2.2-1.1l-1.5-21.4c-.1-1.1 1.1-1.9 2.1-1.4l19.3 9.3c.8.6.9 1.9 0 2.6z"/>
</svg>
