<?xml version="1.0"?>
<svg xmlns="http://www.w3.org/2000/svg" viewBox="0 0 417.3 416.8">
  <ellipse fill="#00C895" cx="365.6" cy="193.5" rx="5.2" ry="5.2"/>
  <ellipse opacity=".98" fill="#00C895" cx="366.3" cy="213.2" rx="5.2" ry="5.2"/>
  <ellipse opacity=".961" fill="#00C895" cx="364.4" cy="232.5" rx="5.2" ry="5.2"/>
  <ellipse opacity=".941" fill="#00C895" cx="360.4" cy="251.1" rx="5.2" ry="5.2"/>
  <ellipse opacity=".922" fill="#00C895" cx="354.3" cy="268.8" rx="5.2" ry="5.2"/>
  <ellipse opacity=".902" fill="#00C895" cx="346.1" cy="285.6" rx="5.2" ry="5.2"/>
  <ellipse opacity=".882" fill="#00C895" cx="336" cy="301.1" rx="5.2" ry="5.2"/>
  <ellipse opacity=".863" fill="#00C895" cx="324.3" cy="315.6" rx="5.2" ry="5.2"/>
  <ellipse opacity=".843" fill="#00C895" cx="310.9" cy="328.4" rx="5.2" ry="5.2"/>
  <ellipse opacity=".824" fill="#00C895" cx="296" cy="339.5" rx="5.2" ry="5.2"/>
  <ellipse opacity=".804" fill="#00C895" cx="279.7" cy="349.1" rx="5.2" ry="5.2"/>
  <ellipse opacity=".784" fill="#00C895" cx="262.2" cy="356.5" rx="5.2" ry="5.2"/>
  <ellipse opacity=".765" fill="#00C895" cx="243.8" cy="362" rx="5.2" ry="5.2"/>
  <ellipse opacity=".745" fill="#00C895" cx="224.3" cy="365" rx="5.2" ry="5.2"/>
  <ellipse opacity=".726" fill="#00C895" cx="204.4" cy="365.8" rx="5.2" ry="5.2"/>
  <ellipse opacity=".706" fill="#00C895" cx="185.3" cy="364" rx="5.2" ry="5.2"/>
  <ellipse transform="rotate(-5.215 166.548 359.995) scale(1.00004)" opacity=".686" fill="#00C895" cx="166.5" cy="360" rx="5.2" ry="5.2"/>
  <ellipse transform="rotate(-5.215 148.928 353.971) scale(1.00004)" opacity=".667" fill="#00C895" cx="148.9" cy="354" rx="5.2" ry="5.2"/>
  <ellipse transform="rotate(-5.215 132.102 345.665) scale(1.00004)" opacity=".647" fill="#00C895" cx="132.1" cy="345.7" rx="5.2" ry="5.2"/>
  <ellipse transform="rotate(-5.215 116.426 335.648) scale(1.00004)" opacity=".627" fill="#00C895" cx="116.4" cy="335.6" rx="5.2" ry="5.2"/>
  <ellipse transform="rotate(-5.215 102.099 323.901) scale(1.00004)" opacity=".608" fill="#00C895" cx="102.1" cy="323.9" rx="5.2" ry="5.2"/>
  <ellipse transform="rotate(-5.215 89.13 310.524) scale(1.00004)" opacity=".588" fill="#00C895" cx="89.1" cy="310.5" rx="5.2" ry="5.2"/>
  <ellipse transform="rotate(-5.215 78.033 295.67) scale(1.00004)" opacity=".569" fill="#00C895" cx="78" cy="295.7" rx="5.2" ry="5.2"/>
  <ellipse transform="rotate(-5.215 68.511 279.367) scale(1.00004)" opacity=".549" fill="#00C895" cx="68.5" cy="279.4" rx="5.2" ry="5.2"/>
  <ellipse transform="rotate(-5.215 61 261.977) scale(1.00004)" opacity=".529" fill="#00C895" cx="61" cy="262" rx="5.2" ry="5.2"/>
  <ellipse transform="rotate(-5.215 55.688 243.383) scale(1.00004)" opacity=".51" fill="#00C895" cx="55.7" cy="243.4" rx="5.2" ry="5.2"/>
  <ellipse transform="rotate(-5.215 52.503 223.89) scale(1.00004)" opacity=".49" fill="#00C895" cx="52.5" cy="223.9" rx="5.2" ry="5.2"/>
  <ellipse transform="rotate(-5.215 51.808 204.172) scale(1.00004)" opacity=".471" fill="#00C895" cx="51.8" cy="204.2" rx="5.2" ry="5.2"/>
  <ellipse transform="rotate(-5.215 53.467 184.94) scale(1.00004)" opacity=".451" fill="#00C895" cx="53.5" cy="184.9" rx="5.2" ry="5.2"/>
  <ellipse opacity=".431" fill="#00C895" cx="57.6" cy="166.3" rx="5.2" ry="5.2"/>
  <ellipse opacity=".412" fill="#00C895" cx="63.6" cy="148.6" rx="5.2" ry="5.2"/>
  <ellipse opacity=".392" fill="#00C895" cx="71.7" cy="131.8" rx="5.2" ry="5.2"/>
  <ellipse opacity=".372" fill="#00C895" cx="81.8" cy="116.1" rx="5.2" ry="5.2"/>
  <ellipse opacity=".353" fill="#00C895" cx="93.6" cy="101.7" rx="5.2" ry="5.2"/>
  <ellipse opacity=".333" fill="#00C895" cx="107" cy="88.9" rx="5.2" ry="5.2"/>
  <ellipse opacity=".314" fill="#00C895" cx="121.8" cy="77.7" rx="5.2" ry="5.2"/>
  <ellipse opacity=".294" fill="#00C895" cx="138.1" cy="68.2" rx="5.2" ry="5.2"/>
  <ellipse transform="rotate(-5.215 155.499 60.649) scale(1.00004)" opacity=".275" fill="#00C895" cx="155.5" cy="60.6" rx="5.2" ry="5.2"/>
  <ellipse transform="rotate(-5.215 173.985 55.246) scale(1.00004)" opacity=".255" fill="#00C895" cx="174" cy="55.2" rx="5.2" ry="5.2"/>
  <ellipse transform="rotate(-5.215 193.577 52.053) scale(1.00004)" opacity=".235" fill="#00C895" cx="193.6" cy="52" rx="5.2" ry="5.2"/>
  <ellipse transform="rotate(-5.215 213.395 51.348) scale(1.00004)" opacity=".216" fill="#00C895" cx="213.4" cy="51.3" rx="5.2" ry="5.2"/>
  <ellipse transform="rotate(-5.215 232.635 53.108) scale(1.00004)" opacity=".196" fill="#00C895" cx="232.6" cy="53.1" rx="5.2" ry="5.2"/>
  <ellipse transform="rotate(-5.215 251.27 57.03) scale(1.00004)" opacity=".176" fill="#00C895" cx="251.3" cy="57" rx="5.2" ry="5.2"/>
  <ellipse transform="rotate(-5.215 269.118 63.335) scale(1.00004)" opacity=".157" fill="#00C895" cx="269.1" cy="63.3" rx="5.2" ry="5.2"/>
  <ellipse transform="rotate(-5.215 286.023 71.432) scale(1.00004)" opacity=".137" fill="#00C895" cx="286" cy="71.4" rx="5.2" ry="5.2"/>
  <ellipse transform="rotate(-5.215 301.6 81.458) scale(1.00004)" opacity=".118" fill="#00C895" cx="301.6" cy="81.5" rx="5.2" ry="5.2"/>
  <ellipse transform="rotate(-5.215 315.937 93.305) scale(1.00004)" opacity=".098" fill="#00C895" cx="315.9" cy="93.3" rx="5.2" ry="5.2"/>
  <ellipse transform="rotate(-5.215 329.015 106.772) scale(1.00004)" opacity=".078" fill="#00C895" cx="329" cy="106.8" rx="5.2" ry="5.2"/>
  <ellipse transform="rotate(-5.215 340.12 121.726) scale(1.00004)" opacity=".059" fill="#00C895" cx="340.1" cy="121.7" rx="5.2" ry="5.2"/>
  <ellipse transform="matrix(.9983 -.0577 .0577 .9983 -7.381 20.403)" opacity=".039" fill="#00C895" cx="349.6" cy="138" rx="5.2" ry="5.2"/>
  <ellipse opacity=".02" fill="#00C895" cx="357.2" cy="155.6" rx="5.2" ry="5.2"/>
  <ellipse fill="none" cx="362.4" cy="174.2" rx="5.2" ry="5.2"/>
  <g>
    <ellipse fill="#00C895" cx="388.6" cy="191.2" rx="5.2" ry="5.2"/>
    <ellipse opacity=".983" fill="#00C895" cx="389.3" cy="210.1" rx="5.2" ry="5.2"/>
    <ellipse opacity=".966" fill="#00C895" cx="388.1" cy="228.8" rx="5.2" ry="5.2"/>
    <ellipse opacity=".949" fill="#00C895" cx="385.1" cy="247.4" rx="5.2" ry="5.2"/>
    <ellipse opacity=".932" fill="#00C895" cx="379.9" cy="265.7" rx="5.2" ry="5.2"/>
    <ellipse opacity=".915" fill="#00C895" cx="373.2" cy="283.2" rx="5.2" ry="5.2"/>
    <ellipse opacity=".898" fill="#00C895" cx="364.5" cy="299.9" rx="5.2" ry="5.2"/>
    <ellipse opacity=".881" fill="#00C895" cx="354.1" cy="315.7" rx="5.2" ry="5.2"/>
    <ellipse opacity=".864" fill="#00C895" cx="342.1" cy="330.2" rx="5.2" ry="5.2"/>
    <ellipse opacity=".848" fill="#00C895" cx="328.7" cy="343.5" rx="5.2" ry="5.2"/>
    <ellipse opacity=".831" fill="#00C895" cx="313.9" cy="355.2" rx="5.2" ry="5.2"/>
    <ellipse opacity=".814" fill="#00C895" cx="298" cy="365.4" rx="5.2" ry="5.2"/>
    <ellipse opacity=".797" fill="#00C895" cx="281.1" cy="373.8" rx="5.2" ry="5.2"/>
    <ellipse opacity=".78" fill="#00C895" cx="263.4" cy="380.6" rx="5.2" ry="5.2"/>
    <ellipse opacity=".763" fill="#00C895" cx="245.3" cy="385.2" rx="5.2" ry="5.2"/>
    <ellipse opacity=".746" fill="#00C895" cx="226.7" cy="388.2" rx="5.2" ry="5.2"/>
    <ellipse opacity=".729" fill="#00C895" cx="207.7" cy="389" rx="5.2" ry="5.2"/>
    <ellipse opacity=".712" fill="#00C895" cx="189" cy="387.8" rx="5.2" ry="5.2"/>
    <ellipse transform="rotate(-5.215 170.423 384.847) scale(1.00004)" opacity=".695" fill="#00C895" cx="170.4" cy="384.8" rx="5.2" ry="5.2"/>
    <ellipse transform="rotate(-5.215 152.078 379.692) scale(1.00004)" opacity=".678" fill="#00C895" cx="152.1" cy="379.7" rx="5.2" ry="5.2"/>
    <ellipse transform="rotate(-5.215 134.575 372.754) scale(1.00004)" opacity=".661" fill="#00C895" cx="134.6" cy="372.7" rx="5.2" ry="5.2"/>
    <ellipse transform="rotate(-5.215 117.722 364.15) scale(1.00004)" opacity=".644" fill="#00C895" cx="117.7" cy="364.1" rx="5.2" ry="5.2"/>
    <ellipse transform="rotate(-5.215 102.119 353.824) scale(1.00004)" opacity=".627" fill="#00C895" cx="102.1" cy="353.8" rx="5.2" ry="5.2"/>
    <ellipse transform="rotate(-5.215 87.475 341.905) scale(1.00004)" opacity=".61" fill="#00C895" cx="87.5" cy="341.9" rx="5.2" ry="5.2"/>
    <ellipse transform="rotate(-5.215 74.287 328.347) scale(1.00004)" opacity=".593" fill="#00C895" cx="74.3" cy="328.3" rx="5.2" ry="5.2"/>
    <ellipse transform="rotate(-5.215 62.621 313.847) scale(1.00004)" opacity=".576" fill="#00C895" cx="62.6" cy="313.8" rx="5.2" ry="5.2"/>
    <ellipse transform="rotate(-5.215 52.42 297.806) scale(1.00004)" opacity=".559" fill="#00C895" cx="52.4" cy="297.8" rx="5.2" ry="5.2"/>
    <ellipse transform="rotate(-5.215 43.85 280.915) scale(1.00004)" opacity=".542" fill="#00C895" cx="43.9" cy="280.9" rx="5.2" ry="5.2"/>
    <ellipse transform="rotate(-5.215 37.017 263.263) scale(1.00004)" opacity=".525" fill="#00C895" cx="37" cy="263.3" rx="5.2" ry="5.2"/>
    <ellipse transform="rotate(-5.215 32.248 245.12) scale(1.00004)" opacity=".508" fill="#00C895" cx="32.2" cy="245.1" rx="5.2" ry="5.2"/>
    <ellipse transform="rotate(-5.215 29.543 226.488) scale(1.00004)" opacity=".491" fill="#00C895" cx="29.5" cy="226.5" rx="5.2" ry="5.2"/>
    <ellipse transform="rotate(-5.215 28.713 207.483) scale(1.00004)" opacity=".475" fill="#00C895" cx="28.7" cy="207.5" rx="5.2" ry="5.2"/>
    <ellipse transform="rotate(-5.215 29.83 188.905) scale(1.00004)" opacity=".458" fill="#00C895" cx="29.8" cy="188.9" rx="5.2" ry="5.2"/>
    <ellipse opacity=".441" fill="#00C895" cx="32.8" cy="170.1" rx="5.2" ry="5.2"/>
    <ellipse opacity=".424" fill="#00C895" cx="37.8" cy="152" rx="5.2" ry="5.2"/>
    <ellipse opacity=".407" fill="#00C895" cx="44.6" cy="134.4" rx="5.2" ry="5.2"/>
    <ellipse opacity=".39" fill="#00C895" cx="53.3" cy="117.5" rx="5.2" ry="5.2"/>
    <ellipse opacity=".373" fill="#00C895" cx="63.6" cy="101.9" rx="5.2" ry="5.2"/>
    <ellipse opacity=".356" fill="#00C895" cx="75.5" cy="87.3" rx="5.2" ry="5.2"/>
    <ellipse opacity=".339" fill="#00C895" cx="88.8" cy="74.1" rx="5.2" ry="5.2"/>
    <ellipse opacity=".322" fill="#00C895" cx="103.5" cy="62.3" rx="5.2" ry="5.2"/>
    <ellipse opacity=".305" fill="#00C895" cx="119.3" cy="52" rx="5.2" ry="5.2"/>
    <ellipse opacity=".288" fill="#00C895" cx="136.5" cy="43.5" rx="5.2" ry="5.2"/>
    <ellipse transform="rotate(-5.215 154.132 36.873) scale(1.00004)" opacity=".271" fill="#00C895" cx="154.1" cy="36.9" rx="5.2" ry="5.2"/>
    <ellipse transform="rotate(-5.215 172.157 31.915) scale(1.00004)" opacity=".254" fill="#00C895" cx="172.2" cy="31.9" rx="5.2" ry="5.2"/>
    <ellipse transform="rotate(-5.215 190.98 29.093) scale(1.00004)" opacity=".237" fill="#00C895" cx="191" cy="29.1" rx="5.2" ry="5.2"/>
    <ellipse transform="rotate(-5.215 209.784 28.28) scale(1.00004)" opacity=".22" fill="#00C895" cx="209.8" cy="28.3" rx="5.2" ry="5.2"/>
    <ellipse transform="rotate(-5.215 228.553 29.28) scale(1.00004)" opacity=".203" fill="#00C895" cx="228.5" cy="29.3" rx="5.2" ry="5.2"/>
    <ellipse transform="rotate(-74.65 247.01 32.43)" opacity=".186" fill="#00C895" cx="247" cy="32.4" rx="5.2" ry="5.2"/>
    <ellipse transform="rotate(-5.215 265.442 37.36) scale(1.00004)" opacity=".17" fill="#00C895" cx="265.4" cy="37.4" rx="5.2" ry="5.2"/>
    <ellipse transform="rotate(-5.215 283.126 44.081) scale(1.00004)" opacity=".152" fill="#00C895" cx="283.1" cy="44.1" rx="5.2" ry="5.2"/>
    <ellipse transform="rotate(-5.215 299.789 52.803) scale(1.00004)" opacity=".136" fill="#00C895" cx="299.8" cy="52.8" rx="5.2" ry="5.2"/>
    <ellipse transform="rotate(-5.215 315.482 63.02) scale(1.00004)" opacity=".119" fill="#00C895" cx="315.5" cy="63" rx="5.2" ry="5.2"/>
    <ellipse transform="rotate(-5.215 330.227 74.93) scale(1.00004)" opacity=".102" fill="#00C895" cx="330.2" cy="74.9" rx="5.2" ry="5.2"/>
    <ellipse transform="matrix(.9983 -.0577 .0577 .9983 -4.521 19.966)" opacity=".085" fill="#00C895" cx="343.5" cy="88.3" rx="5.2" ry="5.2"/>
    <ellipse transform="rotate(-5.215 355.161 102.78) scale(1.00004)" opacity=".068" fill="#00C895" cx="355.1" cy="102.8" rx="5.2" ry="5.2"/>
    <ellipse transform="rotate(-5.215 365.461 118.811) scale(1.00004)" opacity=".051" fill="#00C895" cx="365.4" cy="118.8" rx="5.2" ry="5.2"/>
    <ellipse transform="rotate(-5.215 374.042 135.802) scale(1.00004)" opacity=".034" fill="#00C895" cx="374" cy="135.8" rx="5.2" ry="5.2"/>
    <ellipse opacity=".017" fill="#00C895" cx="380.7" cy="153.3" rx="5.2" ry="5.2"/>
    <ellipse fill="none" cx="385.4" cy="171.4" rx="5.2" ry="5.2"/>
  </g>
  <g>
    <ellipse fill="#00C895" cx="411.4" cy="187.9" rx="5.2" ry="5.2"/>
    <ellipse opacity=".984" fill="#00C895" cx="412.5" cy="208.5" rx="5.2" ry="5.2"/>
    <ellipse opacity=".967" fill="#00C895" cx="411.4" cy="229" rx="5.2" ry="5.2"/>
    <ellipse opacity=".951" fill="#00C895" cx="408.2" cy="249.4" rx="5.2" ry="5.2"/>
    <ellipse opacity=".934" fill="#00C895" cx="403.1" cy="269.4" rx="5.2" ry="5.2"/>
    <ellipse opacity=".918" fill="#00C895" cx="395.9" cy="288.7" rx="5.2" ry="5.2"/>
    <ellipse opacity=".902" fill="#00C895" cx="386.8" cy="307.2" rx="5.2" ry="5.2"/>
    <ellipse opacity=".885" fill="#00C895" cx="376" cy="324.8" rx="5.2" ry="5.2"/>
    <ellipse opacity=".869" fill="#00C895" cx="363.2" cy="341.2" rx="5.2" ry="5.2"/>
    <ellipse opacity=".853" fill="#00C895" cx="349.1" cy="356.1" rx="5.2" ry="5.2"/>
    <ellipse opacity=".836" fill="#00C895" cx="333.6" cy="369.5" rx="5.2" ry="5.2"/>
    <ellipse opacity=".82" fill="#00C895" cx="316.6" cy="381.1" rx="5.2" ry="5.2"/>
    <ellipse opacity=".803" fill="#00C895" cx="298.3" cy="391.3" rx="5.2" ry="5.2"/>
    <ellipse opacity=".787" fill="#00C895" cx="279.4" cy="399.4" rx="5.2" ry="5.2"/>
    <ellipse opacity=".77" fill="#00C895" cx="259.9" cy="405.6" rx="5.2" ry="5.2"/>
    <ellipse opacity=".754" fill="#00C895" cx="239.7" cy="409.5" rx="5.2" ry="5.2"/>
    <ellipse opacity=".738" fill="#00C895" cx="219.1" cy="411.6" rx="5.2" ry="5.2"/>
    <ellipse opacity=".721" fill="#00C895" cx="198.5" cy="411.7" rx="5.2" ry="5.2"/>
    <ellipse transform="rotate(-84.059 177.927 409.67)" opacity=".705" fill="#00C895" cx="177.9" cy="409.7" rx="5.2" ry="5.2"/>
    <ellipse transform="rotate(-5.215 157.836 405.377) scale(1.00004)" opacity=".689" fill="#00C895" cx="157.8" cy="405.4" rx="5.2" ry="5.2"/>
    <ellipse transform="rotate(-5.215 137.997 399.253) scale(1.00004)" opacity=".672" fill="#00C895" cx="138" cy="399.2" rx="5.2" ry="5.2"/>
    <ellipse transform="rotate(-5.215 119.071 391.039) scale(1.00004)" opacity=".656" fill="#00C895" cx="119.1" cy="391" rx="5.2" ry="5.2"/>
    <ellipse transform="rotate(-5.215 101.086 381.032) scale(1.00004)" opacity=".639" fill="#00C895" cx="101.1" cy="381" rx="5.2" ry="5.2"/>
    <ellipse transform="rotate(-5.215 84.133 369.122) scale(1.00004)" opacity=".623" fill="#00C895" cx="84.1" cy="369.1" rx="5.2" ry="5.2"/>
    <ellipse transform="rotate(-5.215 68.647 355.674) scale(1.00004)" opacity=".607" fill="#00C895" cx="68.6" cy="355.7" rx="5.2" ry="5.2"/>
    <ellipse transform="rotate(-5.215 54.337 340.812) scale(1.00004)" opacity=".59" fill="#00C895" cx="54.3" cy="340.8" rx="5.2" ry="5.2"/>
    <ellipse transform="rotate(-5.215 41.908 324.574) scale(1.00004)" opacity=".574" fill="#00C895" cx="41.9" cy="324.6" rx="5.2" ry="5.2"/>
    <ellipse transform="rotate(-5.215 30.948 306.796) scale(1.00004)" opacity=".557" fill="#00C895" cx="30.9" cy="306.8" rx="5.2" ry="5.2"/>
    <ellipse transform="rotate(-5.215 21.814 288.148) scale(1.00004)" opacity=".541" fill="#00C895" cx="21.8" cy="288.1" rx="5.2" ry="5.2"/>
    <ellipse transform="rotate(-5.215 14.728 268.81) scale(1.00004)" opacity=".525" fill="#00C895" cx="14.7" cy="268.8" rx="5.2" ry="5.2"/>
    <ellipse transform="rotate(-5.215 9.506 249.003) scale(1.00004)" opacity=".508" fill="#00C895" cx="9.5" cy="249" rx="5.2" ry="5.2"/>
    <ellipse transform="rotate(-5.215 6.438 228.596) scale(1.00004)" opacity=".492" fill="#00C895" cx="6.4" cy="228.6" rx="5.2" ry="5.2"/>
    <ellipse transform="rotate(-5.215 5.562 207.99) scale(1.00004)" opacity=".475" fill="#00C895" cx="5.6" cy="208" rx="5.2" ry="5.2"/>
    <ellipse transform="rotate(-5.215 6.605 187.51) scale(1.00004)" opacity=".459" fill="#00C895" cx="6.6" cy="187.5" rx="5.2" ry="5.2"/>
    <ellipse opacity=".443" fill="#00C895" cx="9.8" cy="167" rx="5.2" ry="5.2"/>
    <ellipse opacity=".426" fill="#00C895" cx="15" cy="146.9" rx="5.2" ry="5.2"/>
    <ellipse opacity=".41" fill="#00C895" cx="22.5" cy="127.8" rx="5.2" ry="5.2"/>
    <ellipse opacity=".393" fill="#00C895" cx="31.5" cy="109.2" rx="5.2" ry="5.2"/>
    <ellipse opacity=".377" fill="#00C895" cx="42.4" cy="91.8" rx="5.2" ry="5.2"/>
    <ellipse opacity=".361" fill="#00C895" cx="55.2" cy="75.5" rx="5.2" ry="5.2"/>
    <ellipse opacity=".344" fill="#00C895" cx="69.5" cy="60.5" rx="5.2" ry="5.2"/>
    <ellipse opacity=".328" fill="#00C895" cx="84.9" cy="47.2" rx="5.2" ry="5.2"/>
    <ellipse opacity=".311" fill="#00C895" cx="102" cy="35.5" rx="5.2" ry="5.2"/>
    <ellipse opacity=".295" fill="#00C895" cx="120.1" cy="25.4" rx="5.2" ry="5.2"/>
    <ellipse opacity=".279" fill="#00C895" cx="139.3" cy="17.4" rx="5.2" ry="5.2"/>
    <ellipse transform="rotate(-5.215 159.022 11.222) scale(1.00004)" opacity=".262" fill="#00C895" cx="159" cy="11.2" rx="5.2" ry="5.2"/>
    <ellipse transform="rotate(-5.215 179.048 7.286) scale(1.00004)" opacity=".246" fill="#00C895" cx="179" cy="7.3" rx="5.2" ry="5.2"/>
    <ellipse transform="rotate(-5.215 199.645 5.205) scale(1.00004)" opacity=".23" fill="#00C895" cx="199.6" cy="5.2" rx="5.2" ry="5.2"/>
    <ellipse transform="rotate(-5.215 220.351 5.425) scale(1.00004)" opacity=".213" fill="#00C895" cx="220.3" cy="5.4" rx="5.2" ry="5.2"/>
    <ellipse transform="rotate(-54.183 240.621 7.693)" opacity=".197" fill="#00C895" cx="240.6" cy="7.7" rx="5.2" ry="5.2"/>
    <ellipse transform="rotate(-5.215 260.906 11.866) scale(1.00004)" opacity=".18" fill="#00C895" cx="260.9" cy="11.9" rx="5.2" ry="5.2"/>
    <ellipse transform="rotate(-5.215 280.556 18.107) scale(1.00004)" opacity=".164" fill="#00C895" cx="280.5" cy="18.1" rx="5.2" ry="5.2"/>
    <ellipse transform="rotate(-5.215 299.58 26.31) scale(1.00004)" opacity=".147" fill="#00C895" cx="299.6" cy="26.3" rx="5.2" ry="5.2"/>
    <ellipse transform="rotate(-5.215 317.483 36.527) scale(1.00004)" opacity=".131" fill="#00C895" cx="317.5" cy="36.5" rx="5.2" ry="5.2"/>
    <ellipse transform="rotate(-5.215 334.337 48.445) scale(1.00004)" opacity=".115" fill="#00C895" cx="334.3" cy="48.4" rx="5.2" ry="5.2"/>
    <ellipse transform="rotate(-5.215 350.123 61.867) scale(1.00004)" opacity=".098" fill="#00C895" cx="350.1" cy="61.9" rx="5.2" ry="5.2"/>
    <ellipse transform="rotate(-5.215 364.152 76.955) scale(1.00004)" opacity=".082" fill="#00C895" cx="364.1" cy="76.9" rx="5.2" ry="5.2"/>
    <ellipse transform="rotate(-5.215 376.58 93.194) scale(1.00004)" opacity=".066" fill="#00C895" cx="376.6" cy="93.2" rx="5.2" ry="5.2"/>
    <ellipse transform="rotate(-5.215 387.532 110.872) scale(1.00004)" opacity=".049" fill="#00C895" cx="387.5" cy="110.9" rx="5.2" ry="5.2"/>
    <ellipse transform="matrix(.9966 -.08183 .08183 .9966 -9.277 32.887)" opacity=".033" fill="#00C895" cx="396.6" cy="129.6" rx="5.2" ry="5.2"/>
    <ellipse opacity=".016" fill="#00C895" cx="403.5" cy="149" rx="5.2" ry="5.2"/>
    <ellipse fill="none" cx="408.6" cy="168.9" rx="5.2" ry="5.2"/>
  </g>
</svg>
